{
	"FileName":"Notes DataBase",
	"FilesNumber":2,
	"Notes":[
		{
			"fileName":"120BPM_PIANO_C5_simple",
			"OnsetNumber":16,
			"NoteTab":[
				{
					"onsetTime":0,
					"deltaTime":0,
					"length":0.25,
					"velocity":100,
					"pitch":60
				},
				{
					"onsetTime":0.25,
					"deltaTime":0.25,
					"length":0.25,
					"velocity":100,
					"pitch":60
				},
				{
					"onsetTime":0.5,
					"deltaTime":0.25,
					"length":0.25,
					"velocity":100,
					"pitch":60
				},
				{
					"onsetTime":0.75,
					"deltaTime":0.25,
					"length":0.25,
					"velocity":100,
					"pitch":60
				},
				{
					"onsetTime":1,
					"deltaTime":0.25,
					"length":0.25,
					"velocity":100,
					"pitch":60
				},
				{
					"onsetTime":1.25,
					"deltaTime":0.25,
					"length":0.25,
					"velocity":100,
					"pitch":60
				},
				{
					"onsetTime":1.5,
					"deltaTime":0.25,
					"length":0.25,
					"velocity":100,
					"pitch":60
				},
				{
					"onsetTime":1.75,
					"deltaTime":0.25,
					"length":0.25,
					"velocity":100,
					"pitch":60
				},
				{
					"onsetTime":2,
					"deltaTime":0.25,
					"length":0.25,
					"velocity":100,
					"pitch":60
				},
				{
					"onsetTime":2.25,
					"deltaTime":0.25,
					"length":0.25,
					"velocity":100,
					"pitch":60
				},
				{
					"onsetTime":2.5,
					"deltaTime":0.25,
					"length":0.25,
					"velocity":100,
					"pitch":60
				},
				{
					"onsetTime":2.75,
					"deltaTime":0.25,
					"length":0.25,
					"velocity":100,
					"pitch":60
				},
				{
					"onsetTime":3,
					"deltaTime":0.25,
					"length":0.25,
					"velocity":100,
					"pitch":60
				},
				{
					"onsetTime":3.25,
					"deltaTime":0.25,
					"length":0.25,
					"velocity":100,
					"pitch":60
				},
				{
					"onsetTime":3.5,
					"deltaTime":0.25,
					"length":0.25,
					"velocity":100,
					"pitch":60
				},
				{
					"onsetTime":3.75,
					"deltaTime":0.25,
					"length":0.25,
					"velocity":100,
					"pitch":60
				}
			]
		},
		{
			"fileName":"130BPM_PIANO_multiNote",
			"OnsetNumber":38,
			"NoteTab":[
				{
					"onsetTime":0,
					"deltaTime":0,
					"length":0.230769,
					"velocity":110,
					"pitch":72
				},
				{
					"onsetTime":0.230769,
					"deltaTime":0.230769,
					"length":0.230769,
					"velocity":110,
					"pitch":74
				},
				{
					"onsetTime":0.461538,
					"deltaTime":0.230769,
					"length":0.230769,
					"velocity":110,
					"pitch":71
				},
				{
					"onsetTime":0.692307,
					"deltaTime":0.230769,
					"length":0.230769,
					"velocity":110,
					"pitch":69
				},
				{
					"onsetTime":0.923076,
					"deltaTime":0.230769,
					"length":0.230769,
					"velocity":110,
					"pitch":67
				},
				{
					"onsetTime":1.153845,
					"deltaTime":0.230769,
					"length":0.230769,
					"velocity":110,
					"pitch":71
				},
				{
					"onsetTime":1.384614,
					"deltaTime":0.230769,
					"length":0.230769,
					"velocity":110,
					"pitch":74
				},
				{
					"onsetTime":1.615383,
					"deltaTime":0.230769,
					"length":0.230769,
					"velocity":110,
					"pitch":76
				},
				{
					"onsetTime":1.846152,
					"deltaTime":0.230769,
					"length":0.230769,
					"velocity":110,
					"pitch":77
				},
				{
					"onsetTime":2.076921,
					"deltaTime":0.230769,
					"length":0.230769,
					"velocity":110,
					"pitch":79
				},
				{
					"onsetTime":2.30769,
					"deltaTime":0.230769,
					"length":0.1153845,
					"velocity":110,
					"pitch":77
				},
				{
					"onsetTime":2.538459,
					"deltaTime":0.230769,
					"length":0.1153845,
					"velocity":110,
					"pitch":76
				},
				{
					"onsetTime":2.6538435,
					"deltaTime":0.1153845,
					"length":0.1153845,
					"velocity":110,
					"pitch":74
				},
				{
					"onsetTime":2.769228,
					"deltaTime":0.1153845,
					"length":0.1153845,
					"velocity":110,
					"pitch":72
				},
				{
					"onsetTime":2.999997,
					"deltaTime":0.230769,
					"length":0.1153845,
					"velocity":110,
					"pitch":71
				},
				{
					"onsetTime":3.1153815,
					"deltaTime":0.1153845,
					"length":0.1153845,
					"velocity":110,
					"pitch":65
				},
				{
					"onsetTime":3.230766,
					"deltaTime":0.1153845,
					"length":0.1153845,
					"velocity":110,
					"pitch":67
				},
				{
					"onsetTime":3.3461505,
					"deltaTime":0.1153845,
					"length":0.1153845,
					"velocity":110,
					"pitch":72
				},
				{
					"onsetTime":3.5769195,
					"deltaTime":0.230769,
					"length":0.1153845,
					"velocity":110,
					"pitch":69
				},
				{
					"onsetTime":3.8076885,
					"deltaTime":0.230769,
					"length":0.1153845,
					"velocity":110,
					"pitch":72
				},
				{
					"onsetTime":3.923073,
					"deltaTime":0.1153845,
					"length":0.1153845,
					"velocity":110,
					"pitch":71
				},
				{
					"onsetTime":4.153842,
					"deltaTime":0.230769,
					"length":0.1153845,
					"velocity":110,
					"pitch":74
				},
				{
					"onsetTime":4.4999955,
					"deltaTime":0.3461535,
					"length":0.1153845,
					"velocity":110,
					"pitch":76
				},
				{
					"onsetTime":4.61538,
					"deltaTime":0.1153845,
					"length":0.1153845,
					"velocity":110,
					"pitch":76
				},
				{
					"onsetTime":4.7307645,
					"deltaTime":0.1153845,
					"length":0.1153845,
					"velocity":110,
					"pitch":74
				},
				{
					"onsetTime":4.846149,
					"deltaTime":0.1153845,
					"length":0.1153845,
					"velocity":110,
					"pitch":72
				},
				{
					"onsetTime":4.9615335,
					"deltaTime":0.1153845,
					"length":0.1153845,
					"velocity":110,
					"pitch":71
				},
				{
					"onsetTime":5.1923025,
					"deltaTime":0.230769,
					"length":0.1153845,
					"velocity":110,
					"pitch":74
				},
				{
					"onsetTime":5.36537925,
					"deltaTime":0.17307675,
					"length":0.1153845,
					"velocity":110,
					"pitch":72
				},
				{
					"onsetTime":5.538456,
					"deltaTime":0.17307675,
					"length":0.1153845,
					"velocity":110,
					"pitch":72
				},
				{
					"onsetTime":5.769225,
					"deltaTime":0.230769,
					"length":0.1153845,
					"velocity":110,
					"pitch":72
				},
				{
					"onsetTime":5.8846095,
					"deltaTime":0.1153845,
					"length":0.1153845,
					"velocity":110,
					"pitch":69
				},
				{
					"onsetTime":6.17307075,
					"deltaTime":0.28846125,
					"length":0.1153845,
					"velocity":110,
					"pitch":65
				},
				{
					"onsetTime":6.230763,
					"deltaTime":0.05769225,
					"length":0.1153845,
					"velocity":110,
					"pitch":67
				},
				{
					"onsetTime":6.461532,
					"deltaTime":0.230769,
					"length":0.1153845,
					"velocity":110,
					"pitch":65
				},
				{
					"onsetTime":6.692301,
					"deltaTime":0.230769,
					"length":0.1153845,
					"velocity":110,
					"pitch":65
				},
				{
					"onsetTime":6.92307,
					"deltaTime":0.230769,
					"length":0.1153845,
					"velocity":110,
					"pitch":68
				},
				{
					"onsetTime":7.153839,
					"deltaTime":0.230769,
					"length":0.1153845,
					"velocity":110,
					"pitch":65
				}
			]
		}
	]
}
