{
	"FileName":"Notes DataBase",
	"FilesNumber":32,
	"Notes":[
		{
			"fileName":"BADSISTA_midi_BADSISTA_midi_bass_loop_agora_135_Dmin",
			"OnsetNumber":22,
			"NoteTab":[
				{
					"onsetTime":0,
					"deltaTime":0,
					"length":0.282407125,
					"velocity":100,
					"pitch":50
				},
				{
					"onsetTime":0.444444,
					"deltaTime":0.444444,
					"length":0.222222,
					"velocity":100,
					"pitch":62
				},
				{
					"onsetTime":0.666666,
					"deltaTime":0.222222,
					"length":0.333333,
					"velocity":100,
					"pitch":50
				},
				{
					"onsetTime":1.11111,
					"deltaTime":0.444444,
					"length":0.189814625,
					"velocity":100,
					"pitch":57
				},
				{
					"onsetTime":1.333332,
					"deltaTime":0.222222,
					"length":0.365740375,
					"velocity":100,
					"pitch":58
				},
				{
					"onsetTime":1.777776,
					"deltaTime":0.444444,
					"length":0.222222,
					"velocity":100,
					"pitch":50
				},
				{
					"onsetTime":1.999998,
					"deltaTime":0.222222,
					"length":0.222222,
					"velocity":2,
					"pitch":50
				},
				{
					"onsetTime":2.22222,
					"deltaTime":0.222222,
					"length":0.222222,
					"velocity":100,
					"pitch":62
				},
				{
					"onsetTime":2.444442,
					"deltaTime":0.222222,
					"length":0.333333,
					"velocity":100,
					"pitch":50
				},
				{
					"onsetTime":2.888886,
					"deltaTime":0.444444,
					"length":0.189814625,
					"velocity":100,
					"pitch":57
				},
				{
					"onsetTime":3.111108,
					"deltaTime":0.222222,
					"length":0.34259225,
					"velocity":100,
					"pitch":58
				},
				{
					"onsetTime":3.555552,
					"deltaTime":0.444444,
					"length":0.282407125,
					"velocity":100,
					"pitch":50
				},
				{
					"onsetTime":3.999996,
					"deltaTime":0.444444,
					"length":0.222222,
					"velocity":100,
					"pitch":62
				},
				{
					"onsetTime":4.222218,
					"deltaTime":0.222222,
					"length":0.333333,
					"velocity":100,
					"pitch":50
				},
				{
					"onsetTime":4.666662,
					"deltaTime":0.444444,
					"length":0.189814625,
					"velocity":100,
					"pitch":57
				},
				{
					"onsetTime":4.888884,
					"deltaTime":0.222222,
					"length":0.365740375,
					"velocity":100,
					"pitch":58
				},
				{
					"onsetTime":5.333328,
					"deltaTime":0.444444,
					"length":0.222222,
					"velocity":100,
					"pitch":50
				},
				{
					"onsetTime":5.55555,
					"deltaTime":0.222222,
					"length":0.222222,
					"velocity":100,
					"pitch":50
				},
				{
					"onsetTime":5.777772,
					"deltaTime":0.222222,
					"length":0.222222,
					"velocity":100,
					"pitch":62
				},
				{
					"onsetTime":5.999994,
					"deltaTime":0.222222,
					"length":0.333333,
					"velocity":100,
					"pitch":50
				},
				{
					"onsetTime":6.444438,
					"deltaTime":0.444444,
					"length":0.189814625,
					"velocity":100,
					"pitch":57
				},
				{
					"onsetTime":6.66666,
					"deltaTime":0.222222,
					"length":0.34259225,
					"velocity":100,
					"pitch":58
				}
			]
		},
		{
			"fileName":"BADSISTA_midi_BADSISTA_midi_bass_loop_pistao_01_130_Amin",
			"OnsetNumber":36,
			"NoteTab":[
				{
					"onsetTime":0,
					"deltaTime":0,
					"length":0.2067305625,
					"velocity":100,
					"pitch":33
				},
				{
					"onsetTime":0.3461535,
					"deltaTime":0.3461535,
					"length":0.2355766875,
					"velocity":100,
					"pitch":45
				},
				{
					"onsetTime":0.692307,
					"deltaTime":0.3461535,
					"length":0.240384375,
					"velocity":100,
					"pitch":41
				},
				{
					"onsetTime":0.923076,
					"deltaTime":0.230769,
					"length":0.336538125,
					"velocity":100,
					"pitch":40
				},
				{
					"onsetTime":1.846152,
					"deltaTime":0.923076,
					"length":0.21153825,
					"velocity":100,
					"pitch":33
				},
				{
					"onsetTime":2.1923055,
					"deltaTime":0.3461535,
					"length":0.230769,
					"velocity":100,
					"pitch":45
				},
				{
					"onsetTime":2.538459,
					"deltaTime":0.3461535,
					"length":0.2067305625,
					"velocity":100,
					"pitch":41
				},
				{
					"onsetTime":2.769228,
					"deltaTime":0.230769,
					"length":0.3413458125,
					"velocity":100,
					"pitch":40
				},
				{
					"onsetTime":3.230766,
					"deltaTime":0.461538,
					"length":0.24999975,
					"velocity":100,
					"pitch":33
				},
				{
					"onsetTime":3.692304,
					"deltaTime":0.461538,
					"length":0.221153625,
					"velocity":100,
					"pitch":33
				},
				{
					"onsetTime":4.0384575,
					"deltaTime":0.3461535,
					"length":0.2644228125,
					"velocity":100,
					"pitch":45
				},
				{
					"onsetTime":4.384611,
					"deltaTime":0.3461535,
					"length":0.2163459375,
					"velocity":100,
					"pitch":41
				},
				{
					"onsetTime":4.61538,
					"deltaTime":0.230769,
					"length":0.3461535,
					"velocity":100,
					"pitch":40
				},
				{
					"onsetTime":5.538456,
					"deltaTime":0.923076,
					"length":0.2163459375,
					"velocity":100,
					"pitch":33
				},
				{
					"onsetTime":5.8846095,
					"deltaTime":0.3461535,
					"length":0.230769,
					"velocity":100,
					"pitch":45
				},
				{
					"onsetTime":6.230763,
					"deltaTime":0.3461535,
					"length":0.1874998125,
					"velocity":100,
					"pitch":41
				},
				{
					"onsetTime":6.461532,
					"deltaTime":0.230769,
					"length":0.3028843125,
					"velocity":100,
					"pitch":40
				},
				{
					"onsetTime":6.92307,
					"deltaTime":0.461538,
					"length":0.28846125,
					"velocity":100,
					"pitch":36
				},
				{
					"onsetTime":7.384608,
					"deltaTime":0.461538,
					"length":0.2355766875,
					"velocity":100,
					"pitch":33
				},
				{
					"onsetTime":7.7307615,
					"deltaTime":0.3461535,
					"length":0.2067305625,
					"velocity":100,
					"pitch":45
				},
				{
					"onsetTime":8.076915,
					"deltaTime":0.3461535,
					"length":0.1971151875,
					"velocity":100,
					"pitch":41
				},
				{
					"onsetTime":8.307684,
					"deltaTime":0.230769,
					"length":0.3509611875,
					"velocity":100,
					"pitch":40
				},
				{
					"onsetTime":9.23076,
					"deltaTime":0.923076,
					"length":0.221153625,
					"velocity":100,
					"pitch":33
				},
				{
					"onsetTime":9.5769135,
					"deltaTime":0.3461535,
					"length":0.2451920625,
					"velocity":100,
					"pitch":45
				},
				{
					"onsetTime":9.923067,
					"deltaTime":0.3461535,
					"length":0.201922875,
					"velocity":100,
					"pitch":41
				},
				{
					"onsetTime":10.153836,
					"deltaTime":0.230769,
					"length":0.298076625,
					"velocity":100,
					"pitch":40
				},
				{
					"onsetTime":10.615374,
					"deltaTime":0.461538,
					"length":0.2932689375,
					"velocity":100,
					"pitch":36
				},
				{
					"onsetTime":11.076912,
					"deltaTime":0.461538,
					"length":0.2067305625,
					"velocity":100,
					"pitch":33
				},
				{
					"onsetTime":11.4230655,
					"deltaTime":0.3461535,
					"length":0.2067305625,
					"velocity":100,
					"pitch":45
				},
				{
					"onsetTime":11.769219,
					"deltaTime":0.3461535,
					"length":0.2067305625,
					"velocity":100,
					"pitch":41
				},
				{
					"onsetTime":11.999988,
					"deltaTime":0.230769,
					"length":0.384615,
					"velocity":100,
					"pitch":40
				},
				{
					"onsetTime":12.923064,
					"deltaTime":0.923076,
					"length":0.1874998125,
					"velocity":100,
					"pitch":33
				},
				{
					"onsetTime":13.2692175,
					"deltaTime":0.3461535,
					"length":0.2259613125,
					"velocity":100,
					"pitch":45
				},
				{
					"onsetTime":13.615371,
					"deltaTime":0.3461535,
					"length":0.1490383125,
					"velocity":100,
					"pitch":41
				},
				{
					"onsetTime":13.84614,
					"deltaTime":0.230769,
					"length":0.278845875,
					"velocity":100,
					"pitch":40
				},
				{
					"onsetTime":14.307678,
					"deltaTime":0.461538,
					"length":0.2548074375,
					"velocity":100,
					"pitch":33
				}
			]
		},
		{
			"fileName":"BADSISTA_midi_BADSISTA_midi_bass_loop_pistao_02_130_Amin",
			"OnsetNumber":36,
			"NoteTab":[
				{
					"onsetTime":0,
					"deltaTime":0,
					"length":0.13461525,
					"velocity":100,
					"pitch":33
				},
				{
					"onsetTime":0.3461535,
					"deltaTime":0.3461535,
					"length":0.1586536875,
					"velocity":100,
					"pitch":33
				},
				{
					"onsetTime":0.923076,
					"deltaTime":0.5769225,
					"length":0.144230625,
					"velocity":100,
					"pitch":33
				},
				{
					"onsetTime":1.2692295,
					"deltaTime":0.3461535,
					"length":0.13461525,
					"velocity":100,
					"pitch":33
				},
				{
					"onsetTime":1.846152,
					"deltaTime":0.5769225,
					"length":0.1490383125,
					"velocity":100,
					"pitch":33
				},
				{
					"onsetTime":2.1923055,
					"deltaTime":0.3461535,
					"length":0.144230625,
					"velocity":100,
					"pitch":33
				},
				{
					"onsetTime":2.769228,
					"deltaTime":0.5769225,
					"length":0.1394229375,
					"velocity":100,
					"pitch":34
				},
				{
					"onsetTime":3.1153815,
					"deltaTime":0.3461535,
					"length":0.17307675,
					"velocity":96,
					"pitch":34
				},
				{
					"onsetTime":3.461535,
					"deltaTime":0.3461535,
					"length":0.1490383125,
					"velocity":100,
					"pitch":34
				},
				{
					"onsetTime":3.692304,
					"deltaTime":0.230769,
					"length":0.1778844375,
					"velocity":100,
					"pitch":31
				},
				{
					"onsetTime":4.0384575,
					"deltaTime":0.3461535,
					"length":0.163461375,
					"velocity":91,
					"pitch":33
				},
				{
					"onsetTime":4.61538,
					"deltaTime":0.5769225,
					"length":0.1490383125,
					"velocity":100,
					"pitch":33
				},
				{
					"onsetTime":4.9615335,
					"deltaTime":0.3461535,
					"length":0.2259613125,
					"velocity":95,
					"pitch":33
				},
				{
					"onsetTime":5.538456,
					"deltaTime":0.5769225,
					"length":0.1874998125,
					"velocity":100,
					"pitch":33
				},
				{
					"onsetTime":5.8846095,
					"deltaTime":0.3461535,
					"length":0.1586536875,
					"velocity":96,
					"pitch":33
				},
				{
					"onsetTime":6.461532,
					"deltaTime":0.5769225,
					"length":0.1874998125,
					"velocity":100,
					"pitch":34
				},
				{
					"onsetTime":6.8076855,
					"deltaTime":0.3461535,
					"length":0.144230625,
					"velocity":100,
					"pitch":34
				},
				{
					"onsetTime":7.153839,
					"deltaTime":0.3461535,
					"length":0.1153845,
					"velocity":100,
					"pitch":34
				},
				{
					"onsetTime":7.384608,
					"deltaTime":0.230769,
					"length":0.163461375,
					"velocity":100,
					"pitch":32
				},
				{
					"onsetTime":7.7307615,
					"deltaTime":0.3461535,
					"length":0.13461525,
					"velocity":100,
					"pitch":33
				},
				{
					"onsetTime":8.307684,
					"deltaTime":0.5769225,
					"length":0.124999875,
					"velocity":100,
					"pitch":33
				},
				{
					"onsetTime":8.6538375,
					"deltaTime":0.3461535,
					"length":0.1682690625,
					"velocity":100,
					"pitch":33
				},
				{
					"onsetTime":9.23076,
					"deltaTime":0.5769225,
					"length":0.1298075625,
					"velocity":110,
					"pitch":33
				},
				{
					"onsetTime":9.5769135,
					"deltaTime":0.3461535,
					"length":0.1490383125,
					"velocity":102,
					"pitch":33
				},
				{
					"onsetTime":10.153836,
					"deltaTime":0.5769225,
					"length":0.2740381875,
					"velocity":102,
					"pitch":34
				},
				{
					"onsetTime":10.4999895,
					"deltaTime":0.3461535,
					"length":0.1201921875,
					"velocity":96,
					"pitch":34
				},
				{
					"onsetTime":10.846143,
					"deltaTime":0.3461535,
					"length":0.1105768125,
					"velocity":100,
					"pitch":34
				},
				{
					"onsetTime":11.076912,
					"deltaTime":0.230769,
					"length":0.1490383125,
					"velocity":106,
					"pitch":31
				},
				{
					"onsetTime":11.4230655,
					"deltaTime":0.3461535,
					"length":0.13461525,
					"velocity":100,
					"pitch":33
				},
				{
					"onsetTime":11.999988,
					"deltaTime":0.5769225,
					"length":0.1153845,
					"velocity":95,
					"pitch":33
				},
				{
					"onsetTime":12.3461415,
					"deltaTime":0.3461535,
					"length":0.1298075625,
					"velocity":100,
					"pitch":33
				},
				{
					"onsetTime":12.923064,
					"deltaTime":0.5769225,
					"length":0.1874998125,
					"velocity":109,
					"pitch":33
				},
				{
					"onsetTime":13.2692175,
					"deltaTime":0.3461535,
					"length":0.2259613125,
					"velocity":100,
					"pitch":45
				},
				{
					"onsetTime":13.615371,
					"deltaTime":0.3461535,
					"length":0.1490383125,
					"velocity":100,
					"pitch":41
				},
				{
					"onsetTime":13.84614,
					"deltaTime":0.230769,
					"length":0.278845875,
					"velocity":100,
					"pitch":40
				},
				{
					"onsetTime":14.307678,
					"deltaTime":0.461538,
					"length":0.2548074375,
					"velocity":100,
					"pitch":33
				}
			]
		},
		{
			"fileName":"BADSISTA_midi_BADSISTA_midi_bell_melody_loop_pistao_130_Amin",
			"OnsetNumber":20,
			"NoteTab":[
				{
					"onsetTime":0,
					"deltaTime":0,
					"length":0.0817306875,
					"velocity":100,
					"pitch":74
				},
				{
					"onsetTime":0.230769,
					"deltaTime":0.230769,
					"length":0.0721153125,
					"velocity":100,
					"pitch":76
				},
				{
					"onsetTime":0.461538,
					"deltaTime":0.230769,
					"length":0.1009614375,
					"velocity":100,
					"pitch":77
				},
				{
					"onsetTime":2.076921,
					"deltaTime":1.615383,
					"length":0.076923,
					"velocity":100,
					"pitch":74
				},
				{
					"onsetTime":2.30769,
					"deltaTime":0.230769,
					"length":0.0913460625,
					"velocity":100,
					"pitch":76
				},
				{
					"onsetTime":2.538459,
					"deltaTime":0.230769,
					"length":0.1009614375,
					"velocity":100,
					"pitch":77
				},
				{
					"onsetTime":2.769228,
					"deltaTime":0.230769,
					"length":0.067307625,
					"velocity":100,
					"pitch":81
				},
				{
					"onsetTime":2.999997,
					"deltaTime":0.230769,
					"length":0.076923,
					"velocity":100,
					"pitch":83
				},
				{
					"onsetTime":3.230766,
					"deltaTime":0.230769,
					"length":0.0721153125,
					"velocity":100,
					"pitch":81
				},
				{
					"onsetTime":3.461535,
					"deltaTime":0.230769,
					"length":0.086538375,
					"velocity":100,
					"pitch":76
				},
				{
					"onsetTime":7.384608,
					"deltaTime":3.923073,
					"length":0.0913460625,
					"velocity":100,
					"pitch":74
				},
				{
					"onsetTime":7.615377,
					"deltaTime":0.230769,
					"length":0.0817306875,
					"velocity":100,
					"pitch":76
				},
				{
					"onsetTime":7.846146,
					"deltaTime":0.230769,
					"length":0.0913460625,
					"velocity":100,
					"pitch":77
				},
				{
					"onsetTime":9.461529,
					"deltaTime":1.615383,
					"length":0.1009614375,
					"velocity":100,
					"pitch":74
				},
				{
					"onsetTime":9.692298,
					"deltaTime":0.230769,
					"length":0.1105768125,
					"velocity":100,
					"pitch":76
				},
				{
					"onsetTime":9.923067,
					"deltaTime":0.230769,
					"length":0.105769125,
					"velocity":100,
					"pitch":77
				},
				{
					"onsetTime":10.153836,
					"deltaTime":0.230769,
					"length":0.0721153125,
					"velocity":100,
					"pitch":81
				},
				{
					"onsetTime":10.384605,
					"deltaTime":0.230769,
					"length":0.067307625,
					"velocity":100,
					"pitch":83
				},
				{
					"onsetTime":10.615374,
					"deltaTime":0.230769,
					"length":0.0624999375,
					"velocity":100,
					"pitch":84
				},
				{
					"onsetTime":10.846143,
					"deltaTime":0.230769,
					"length":0.076923,
					"velocity":100,
					"pitch":88
				}
			]
		},
		{
			"fileName":"Bass_dth_124_bass_synth_loop_dark_Emin",
			"OnsetNumber":5,
			"NoteTab":[
				{
					"onsetTime":0,
					"deltaTime":0,
					"length":0.060483875,
					"velocity":121,
					"pitch":52
				},
				{
					"onsetTime":0.181451625,
					"deltaTime":0.181451625,
					"length":0.12096775,
					"velocity":121,
					"pitch":54
				},
				{
					"onsetTime":0.423387125,
					"deltaTime":0.2419355,
					"length":0.12096775,
					"velocity":121,
					"pitch":55
				},
				{
					"onsetTime":0.544354875,
					"deltaTime":0.12096775,
					"length":0.12096775,
					"velocity":121,
					"pitch":59
				},
				{
					"onsetTime":0.786290375,
					"deltaTime":0.2419355,
					"length":0.12096775,
					"velocity":121,
					"pitch":52
				}
			]
		},
		{
			"fileName":"CBMIX_midi_CBMIX_midi_drill_shit_loops_CBMIX_midi_bell_loop_drill_shit_bell_plucks_140_Ebmin",
			"OnsetNumber":48,
			"NoteTab":[
				{
					"onsetTime":0,
					"deltaTime":0,
					"length":0.857142,
					"velocity":100,
					"pitch":51
				},
				{
					"onsetTime":0.2142855,
					"deltaTime":0.2142855,
					"length":0.6428565,
					"velocity":100,
					"pitch":54
				},
				{
					"onsetTime":0.428571,
					"deltaTime":0.2142855,
					"length":0.428571,
					"velocity":99,
					"pitch":58
				},
				{
					"onsetTime":0.857142,
					"deltaTime":0.428571,
					"length":0.857142,
					"velocity":101,
					"pitch":51
				},
				{
					"onsetTime":1.0714275,
					"deltaTime":0.2142855,
					"length":0.6428565,
					"velocity":100,
					"pitch":53
				},
				{
					"onsetTime":1.285713,
					"deltaTime":0.2142855,
					"length":0.428571,
					"velocity":99,
					"pitch":56
				},
				{
					"onsetTime":1.714284,
					"deltaTime":0.428571,
					"length":0.857142,
					"velocity":99,
					"pitch":51
				},
				{
					"onsetTime":1.9285695,
					"deltaTime":0.2142855,
					"length":0.6428565,
					"velocity":101,
					"pitch":54
				},
				{
					"onsetTime":2.142855,
					"deltaTime":0.2142855,
					"length":0.428571,
					"velocity":99,
					"pitch":58
				},
				{
					"onsetTime":2.571426,
					"deltaTime":0.428571,
					"length":0.857142,
					"velocity":99,
					"pitch":51
				},
				{
					"onsetTime":2.7857115,
					"deltaTime":0.2142855,
					"length":0.6428565,
					"velocity":100,
					"pitch":53
				},
				{
					"onsetTime":2.999997,
					"deltaTime":0.2142855,
					"length":0.428571,
					"velocity":99,
					"pitch":59
				},
				{
					"onsetTime":3.428568,
					"deltaTime":0.428571,
					"length":0.857142,
					"velocity":100,
					"pitch":51
				},
				{
					"onsetTime":3.6428535,
					"deltaTime":0.2142855,
					"length":0.6428565,
					"velocity":101,
					"pitch":54
				},
				{
					"onsetTime":3.857139,
					"deltaTime":0.2142855,
					"length":0.428571,
					"velocity":100,
					"pitch":58
				},
				{
					"onsetTime":4.28571,
					"deltaTime":0.428571,
					"length":0.857142,
					"velocity":101,
					"pitch":51
				},
				{
					"onsetTime":4.4999955,
					"deltaTime":0.2142855,
					"length":0.6428565,
					"velocity":100,
					"pitch":53
				},
				{
					"onsetTime":4.714281,
					"deltaTime":0.2142855,
					"length":0.428571,
					"velocity":100,
					"pitch":56
				},
				{
					"onsetTime":5.142852,
					"deltaTime":0.428571,
					"length":0.857142,
					"velocity":100,
					"pitch":51
				},
				{
					"onsetTime":5.3571375,
					"deltaTime":0.2142855,
					"length":0.6428565,
					"velocity":100,
					"pitch":54
				},
				{
					"onsetTime":5.571423,
					"deltaTime":0.2142855,
					"length":0.428571,
					"velocity":100,
					"pitch":58
				},
				{
					"onsetTime":5.999994,
					"deltaTime":0.428571,
					"length":0.857142,
					"velocity":101,
					"pitch":51
				},
				{
					"onsetTime":6.2142795,
					"deltaTime":0.2142855,
					"length":0.6428565,
					"velocity":100,
					"pitch":53
				},
				{
					"onsetTime":6.428565,
					"deltaTime":0.2142855,
					"length":0.428571,
					"velocity":101,
					"pitch":59
				},
				{
					"onsetTime":6.857136,
					"deltaTime":0.428571,
					"length":0.857142,
					"velocity":100,
					"pitch":51
				},
				{
					"onsetTime":7.0714215,
					"deltaTime":0.2142855,
					"length":0.6428565,
					"velocity":100,
					"pitch":54
				},
				{
					"onsetTime":7.285707,
					"deltaTime":0.2142855,
					"length":0.428571,
					"velocity":100,
					"pitch":58
				},
				{
					"onsetTime":7.714278,
					"deltaTime":0.428571,
					"length":0.857142,
					"velocity":99,
					"pitch":51
				},
				{
					"onsetTime":7.9285635,
					"deltaTime":0.2142855,
					"length":0.6428565,
					"velocity":100,
					"pitch":53
				},
				{
					"onsetTime":8.142849,
					"deltaTime":0.2142855,
					"length":0.428571,
					"velocity":99,
					"pitch":56
				},
				{
					"onsetTime":8.57142,
					"deltaTime":0.428571,
					"length":0.857142,
					"velocity":100,
					"pitch":51
				},
				{
					"onsetTime":8.7857055,
					"deltaTime":0.2142855,
					"length":0.6428565,
					"velocity":100,
					"pitch":54
				},
				{
					"onsetTime":8.999991,
					"deltaTime":0.2142855,
					"length":0.428571,
					"velocity":100,
					"pitch":58
				},
				{
					"onsetTime":9.428562,
					"deltaTime":0.428571,
					"length":0.857142,
					"velocity":99,
					"pitch":51
				},
				{
					"onsetTime":9.6428475,
					"deltaTime":0.2142855,
					"length":0.6428565,
					"velocity":101,
					"pitch":53
				},
				{
					"onsetTime":9.857133,
					"deltaTime":0.2142855,
					"length":0.428571,
					"velocity":99,
					"pitch":59
				},
				{
					"onsetTime":10.285704,
					"deltaTime":0.428571,
					"length":0.857142,
					"velocity":100,
					"pitch":51
				},
				{
					"onsetTime":10.4999895,
					"deltaTime":0.2142855,
					"length":0.6428565,
					"velocity":100,
					"pitch":54
				},
				{
					"onsetTime":10.714275,
					"deltaTime":0.2142855,
					"length":0.428571,
					"velocity":100,
					"pitch":58
				},
				{
					"onsetTime":11.142846,
					"deltaTime":0.428571,
					"length":0.857142,
					"velocity":99,
					"pitch":51
				},
				{
					"onsetTime":11.3571315,
					"deltaTime":0.2142855,
					"length":0.6428565,
					"velocity":100,
					"pitch":53
				},
				{
					"onsetTime":11.571417,
					"deltaTime":0.2142855,
					"length":0.428571,
					"velocity":101,
					"pitch":56
				},
				{
					"onsetTime":11.999988,
					"deltaTime":0.428571,
					"length":0.857142,
					"velocity":100,
					"pitch":51
				},
				{
					"onsetTime":12.2142735,
					"deltaTime":0.2142855,
					"length":0.6428565,
					"velocity":100,
					"pitch":54
				},
				{
					"onsetTime":12.428559,
					"deltaTime":0.2142855,
					"length":0.428571,
					"velocity":99,
					"pitch":58
				},
				{
					"onsetTime":12.85713,
					"deltaTime":0.428571,
					"length":0.857142,
					"velocity":100,
					"pitch":51
				},
				{
					"onsetTime":13.0714155,
					"deltaTime":0.2142855,
					"length":0.6428565,
					"velocity":101,
					"pitch":53
				},
				{
					"onsetTime":13.285701,
					"deltaTime":0.2142855,
					"length":0.428571,
					"velocity":100,
					"pitch":59
				}
			]
		},
		{
			"fileName":"CBMIX_midi_CBMIX_midi_hihat_loops_CBMIX_midi_hihat_loop_140_01",
			"OnsetNumber":60,
			"NoteTab":[
				{
					"onsetTime":0,
					"deltaTime":0,
					"length":0.2142855,
					"velocity":100,
					"pitch":59
				},
				{
					"onsetTime":0.2142855,
					"deltaTime":0.2142855,
					"length":0.2142855,
					"velocity":100,
					"pitch":59
				},
				{
					"onsetTime":0.428571,
					"deltaTime":0.2142855,
					"length":0.2142855,
					"velocity":85,
					"pitch":60
				},
				{
					"onsetTime":0.6428565,
					"deltaTime":0.2142855,
					"length":0.2142855,
					"velocity":100,
					"pitch":60
				},
				{
					"onsetTime":0.857142,
					"deltaTime":0.2142855,
					"length":0.2142855,
					"velocity":100,
					"pitch":56
				},
				{
					"onsetTime":1.0714275,
					"deltaTime":0.2142855,
					"length":0.2142855,
					"velocity":100,
					"pitch":59
				},
				{
					"onsetTime":1.285713,
					"deltaTime":0.2142855,
					"length":0.2142855,
					"velocity":87,
					"pitch":60
				},
				{
					"onsetTime":1.4999985,
					"deltaTime":0.2142855,
					"length":0.2142855,
					"velocity":100,
					"pitch":60
				},
				{
					"onsetTime":1.714284,
					"deltaTime":0.2142855,
					"length":0.2142855,
					"velocity":100,
					"pitch":59
				},
				{
					"onsetTime":1.9285695,
					"deltaTime":0.2142855,
					"length":0.2142855,
					"velocity":100,
					"pitch":59
				},
				{
					"onsetTime":2.142855,
					"deltaTime":0.2142855,
					"length":0.2142855,
					"velocity":83,
					"pitch":60
				},
				{
					"onsetTime":2.3571405,
					"deltaTime":0.2142855,
					"length":0.2142855,
					"velocity":100,
					"pitch":60
				},
				{
					"onsetTime":2.571426,
					"deltaTime":0.2142855,
					"length":0.2142855,
					"velocity":100,
					"pitch":58
				},
				{
					"onsetTime":2.7857115,
					"deltaTime":0.2142855,
					"length":0.2142855,
					"velocity":100,
					"pitch":59
				},
				{
					"onsetTime":2.999997,
					"deltaTime":0.2142855,
					"length":0.2142855,
					"velocity":88,
					"pitch":60
				},
				{
					"onsetTime":3.2142825,
					"deltaTime":0.2142855,
					"length":0.2142855,
					"velocity":100,
					"pitch":60
				},
				{
					"onsetTime":3.428568,
					"deltaTime":0.2142855,
					"length":0.2142855,
					"velocity":100,
					"pitch":59
				},
				{
					"onsetTime":3.6428535,
					"deltaTime":0.2142855,
					"length":0.2142855,
					"velocity":100,
					"pitch":59
				},
				{
					"onsetTime":3.857139,
					"deltaTime":0.2142855,
					"length":0.2142855,
					"velocity":85,
					"pitch":60
				},
				{
					"onsetTime":4.0714245,
					"deltaTime":0.2142855,
					"length":0.2142855,
					"velocity":100,
					"pitch":60
				},
				{
					"onsetTime":4.28571,
					"deltaTime":0.2142855,
					"length":0.2142855,
					"velocity":100,
					"pitch":55
				},
				{
					"onsetTime":4.4999955,
					"deltaTime":0.2142855,
					"length":0.2142855,
					"velocity":100,
					"pitch":59
				},
				{
					"onsetTime":4.714281,
					"deltaTime":0.2142855,
					"length":0.2142855,
					"velocity":87,
					"pitch":60
				},
				{
					"onsetTime":4.9285665,
					"deltaTime":0.2142855,
					"length":0.2142855,
					"velocity":100,
					"pitch":60
				},
				{
					"onsetTime":5.142852,
					"deltaTime":0.2142855,
					"length":0.2142855,
					"velocity":100,
					"pitch":59
				},
				{
					"onsetTime":5.3571375,
					"deltaTime":0.2142855,
					"length":0.2142855,
					"velocity":100,
					"pitch":59
				},
				{
					"onsetTime":5.571423,
					"deltaTime":0.2142855,
					"length":0.2142855,
					"velocity":83,
					"pitch":60
				},
				{
					"onsetTime":5.7857085,
					"deltaTime":0.2142855,
					"length":0.2142855,
					"velocity":100,
					"pitch":60
				},
				{
					"onsetTime":5.999994,
					"deltaTime":0.2142855,
					"length":0.2142855,
					"velocity":100,
					"pitch":57
				},
				{
					"onsetTime":6.2142795,
					"deltaTime":0.2142855,
					"length":0.2142855,
					"velocity":100,
					"pitch":59
				},
				{
					"onsetTime":6.428565,
					"deltaTime":0.2142855,
					"length":0.2142855,
					"velocity":88,
					"pitch":60
				},
				{
					"onsetTime":6.6428505,
					"deltaTime":0.2142855,
					"length":0.2142855,
					"velocity":100,
					"pitch":60
				},
				{
					"onsetTime":6.857136,
					"deltaTime":0.2142855,
					"length":0.2142855,
					"velocity":100,
					"pitch":59
				},
				{
					"onsetTime":7.0714215,
					"deltaTime":0.2142855,
					"length":0.2142855,
					"velocity":100,
					"pitch":59
				},
				{
					"onsetTime":7.285707,
					"deltaTime":0.2142855,
					"length":0.2142855,
					"velocity":85,
					"pitch":60
				},
				{
					"onsetTime":7.4999925,
					"deltaTime":0.2142855,
					"length":0.2142855,
					"velocity":100,
					"pitch":60
				},
				{
					"onsetTime":7.714278,
					"deltaTime":0.2142855,
					"length":0.2142855,
					"velocity":100,
					"pitch":56
				},
				{
					"onsetTime":7.9285635,
					"deltaTime":0.2142855,
					"length":0.2142855,
					"velocity":100,
					"pitch":59
				},
				{
					"onsetTime":8.142849,
					"deltaTime":0.2142855,
					"length":0.2142855,
					"velocity":87,
					"pitch":60
				},
				{
					"onsetTime":8.3571345,
					"deltaTime":0.2142855,
					"length":0.2142855,
					"velocity":100,
					"pitch":60
				},
				{
					"onsetTime":8.57142,
					"deltaTime":0.2142855,
					"length":0.2142855,
					"velocity":100,
					"pitch":59
				},
				{
					"onsetTime":8.7857055,
					"deltaTime":0.2142855,
					"length":0.2142855,
					"velocity":100,
					"pitch":59
				},
				{
					"onsetTime":8.999991,
					"deltaTime":0.2142855,
					"length":0.2142855,
					"velocity":83,
					"pitch":60
				},
				{
					"onsetTime":9.2142765,
					"deltaTime":0.2142855,
					"length":0.2142855,
					"velocity":100,
					"pitch":60
				},
				{
					"onsetTime":9.428562,
					"deltaTime":0.2142855,
					"length":0.2142855,
					"velocity":100,
					"pitch":58
				},
				{
					"onsetTime":9.6428475,
					"deltaTime":0.2142855,
					"length":0.2142855,
					"velocity":100,
					"pitch":59
				},
				{
					"onsetTime":9.857133,
					"deltaTime":0.2142855,
					"length":0.2142855,
					"velocity":88,
					"pitch":60
				},
				{
					"onsetTime":10.0714185,
					"deltaTime":0.2142855,
					"length":0.2142855,
					"velocity":100,
					"pitch":60
				},
				{
					"onsetTime":10.285704,
					"deltaTime":0.2142855,
					"length":0.2142855,
					"velocity":100,
					"pitch":59
				},
				{
					"onsetTime":10.4999895,
					"deltaTime":0.2142855,
					"length":0.2142855,
					"velocity":100,
					"pitch":59
				},
				{
					"onsetTime":10.714275,
					"deltaTime":0.2142855,
					"length":0.2142855,
					"velocity":85,
					"pitch":60
				},
				{
					"onsetTime":10.9285605,
					"deltaTime":0.2142855,
					"length":0.2142855,
					"velocity":100,
					"pitch":60
				},
				{
					"onsetTime":11.142846,
					"deltaTime":0.2142855,
					"length":0.2142855,
					"velocity":100,
					"pitch":55
				},
				{
					"onsetTime":11.3571315,
					"deltaTime":0.2142855,
					"length":0.2142855,
					"velocity":100,
					"pitch":59
				},
				{
					"onsetTime":11.571417,
					"deltaTime":0.2142855,
					"length":0.2142855,
					"velocity":87,
					"pitch":60
				},
				{
					"onsetTime":11.7857025,
					"deltaTime":0.2142855,
					"length":0.2142855,
					"velocity":100,
					"pitch":60
				},
				{
					"onsetTime":11.999988,
					"deltaTime":0.2142855,
					"length":0.2142855,
					"velocity":100,
					"pitch":59
				},
				{
					"onsetTime":12.2142735,
					"deltaTime":0.2142855,
					"length":0.2142855,
					"velocity":100,
					"pitch":59
				},
				{
					"onsetTime":12.428559,
					"deltaTime":0.2142855,
					"length":0.2142855,
					"velocity":83,
					"pitch":60
				},
				{
					"onsetTime":12.6428445,
					"deltaTime":0.2142855,
					"length":0.2142855,
					"velocity":100,
					"pitch":60
				}
			]
		},
		{
			"fileName":"CBMIX_midi_CBMIX_midi_hihat_loops_CBMIX_midi_hihat_loop_140_03",
			"OnsetNumber":81,
			"NoteTab":[
				{
					"onsetTime":0,
					"deltaTime":0,
					"length":0.2142855,
					"velocity":100,
					"pitch":60
				},
				{
					"onsetTime":0.2142855,
					"deltaTime":0.2142855,
					"length":0.2142855,
					"velocity":100,
					"pitch":60
				},
				{
					"onsetTime":0.428571,
					"deltaTime":0.2142855,
					"length":0.1294641562,
					"velocity":100,
					"pitch":60
				},
				{
					"onsetTime":0.571428,
					"deltaTime":0.142857,
					"length":0.1294641562,
					"velocity":100,
					"pitch":60
				},
				{
					"onsetTime":0.714285,
					"deltaTime":0.142857,
					"length":0.1294641562,
					"velocity":100,
					"pitch":60
				},
				{
					"onsetTime":0.857142,
					"deltaTime":0.142857,
					"length":0.2142855,
					"velocity":100,
					"pitch":60
				},
				{
					"onsetTime":1.0714275,
					"deltaTime":0.2142855,
					"length":0.2142855,
					"velocity":100,
					"pitch":60
				},
				{
					"onsetTime":1.285713,
					"deltaTime":0.2142855,
					"length":0.053571375,
					"velocity":100,
					"pitch":60
				},
				{
					"onsetTime":1.4999985,
					"deltaTime":0.2142855,
					"length":0.2142855,
					"velocity":100,
					"pitch":60
				},
				{
					"onsetTime":1.714284,
					"deltaTime":0.2142855,
					"length":0.2142855,
					"velocity":100,
					"pitch":60
				},
				{
					"onsetTime":1.9285695,
					"deltaTime":0.2142855,
					"length":0.2142855,
					"velocity":100,
					"pitch":60
				},
				{
					"onsetTime":2.142855,
					"deltaTime":0.2142855,
					"length":0.142857,
					"velocity":100,
					"pitch":60
				},
				{
					"onsetTime":2.285712,
					"deltaTime":0.142857,
					"length":0.0714285,
					"velocity":100,
					"pitch":60
				},
				{
					"onsetTime":2.3571405,
					"deltaTime":0.0714285,
					"length":0.0714285,
					"velocity":100,
					"pitch":60
				},
				{
					"onsetTime":2.428569,
					"deltaTime":0.0714285,
					"length":0.142857,
					"velocity":100,
					"pitch":60
				},
				{
					"onsetTime":2.571426,
					"deltaTime":0.142857,
					"length":0.2142855,
					"velocity":100,
					"pitch":60
				},
				{
					"onsetTime":2.7857115,
					"deltaTime":0.2142855,
					"length":0.2142855,
					"velocity":100,
					"pitch":60
				},
				{
					"onsetTime":2.999997,
					"deltaTime":0.2142855,
					"length":0.053571375,
					"velocity":100,
					"pitch":60
				},
				{
					"onsetTime":3.053568375,
					"deltaTime":0.053571375,
					"length":0.053571375,
					"velocity":100,
					"pitch":60
				},
				{
					"onsetTime":3.10713975,
					"deltaTime":0.053571375,
					"length":0.053571375,
					"velocity":100,
					"pitch":60
				},
				{
					"onsetTime":3.160711125,
					"deltaTime":0.053571375,
					"length":0.053571375,
					"velocity":100,
					"pitch":60
				},
				{
					"onsetTime":3.2142825,
					"deltaTime":0.053571375,
					"length":0.2142855,
					"velocity":100,
					"pitch":60
				},
				{
					"onsetTime":3.428568,
					"deltaTime":0.2142855,
					"length":0.2142855,
					"velocity":100,
					"pitch":60
				},
				{
					"onsetTime":3.6428535,
					"deltaTime":0.2142855,
					"length":0.2142855,
					"velocity":100,
					"pitch":60
				},
				{
					"onsetTime":3.857139,
					"deltaTime":0.2142855,
					"length":0.1294641563,
					"velocity":100,
					"pitch":60
				},
				{
					"onsetTime":3.999996,
					"deltaTime":0.142857,
					"length":0.1294641562,
					"velocity":100,
					"pitch":60
				},
				{
					"onsetTime":4.142853,
					"deltaTime":0.142857,
					"length":0.1294641563,
					"velocity":100,
					"pitch":60
				},
				{
					"onsetTime":4.28571,
					"deltaTime":0.142857,
					"length":0.2142855,
					"velocity":100,
					"pitch":60
				},
				{
					"onsetTime":4.4999955,
					"deltaTime":0.2142855,
					"length":0.2142855,
					"velocity":100,
					"pitch":60
				},
				{
					"onsetTime":4.714281,
					"deltaTime":0.2142855,
					"length":0.053571375,
					"velocity":100,
					"pitch":60
				},
				{
					"onsetTime":4.9285665,
					"deltaTime":0.2142855,
					"length":0.2142855,
					"velocity":100,
					"pitch":60
				},
				{
					"onsetTime":5.142852,
					"deltaTime":0.2142855,
					"length":0.2142855,
					"velocity":100,
					"pitch":60
				},
				{
					"onsetTime":5.3571375,
					"deltaTime":0.2142855,
					"length":0.2142855,
					"velocity":100,
					"pitch":60
				},
				{
					"onsetTime":5.571423,
					"deltaTime":0.2142855,
					"length":0.142857,
					"velocity":100,
					"pitch":60
				},
				{
					"onsetTime":5.71428,
					"deltaTime":0.142857,
					"length":0.0714285,
					"velocity":100,
					"pitch":60
				},
				{
					"onsetTime":5.7857085,
					"deltaTime":0.0714285,
					"length":0.0714285,
					"velocity":100,
					"pitch":60
				},
				{
					"onsetTime":5.857137,
					"deltaTime":0.0714285,
					"length":0.142857,
					"velocity":100,
					"pitch":60
				},
				{
					"onsetTime":5.999994,
					"deltaTime":0.142857,
					"length":0.2142855,
					"velocity":100,
					"pitch":60
				},
				{
					"onsetTime":6.2142795,
					"deltaTime":0.2142855,
					"length":0.2142855,
					"velocity":100,
					"pitch":60
				},
				{
					"onsetTime":6.428565,
					"deltaTime":0.2142855,
					"length":0.053571375,
					"velocity":100,
					"pitch":59
				},
				{
					"onsetTime":6.53570775,
					"deltaTime":0.10714275,
					"length":0.053571375,
					"velocity":100,
					"pitch":59
				},
				{
					"onsetTime":6.6428505,
					"deltaTime":0.10714275,
					"length":0.2142855,
					"velocity":100,
					"pitch":59
				},
				{
					"onsetTime":6.857136,
					"deltaTime":0.2142855,
					"length":0.2142855,
					"velocity":100,
					"pitch":60
				},
				{
					"onsetTime":7.0714215,
					"deltaTime":0.2142855,
					"length":0.2142855,
					"velocity":100,
					"pitch":60
				},
				{
					"onsetTime":7.285707,
					"deltaTime":0.2142855,
					"length":0.1294641563,
					"velocity":100,
					"pitch":60
				},
				{
					"onsetTime":7.428564,
					"deltaTime":0.142857,
					"length":0.1294641563,
					"velocity":100,
					"pitch":60
				},
				{
					"onsetTime":7.571421,
					"deltaTime":0.142857,
					"length":0.1294641563,
					"velocity":100,
					"pitch":60
				},
				{
					"onsetTime":7.714278,
					"deltaTime":0.142857,
					"length":0.2142855,
					"velocity":100,
					"pitch":60
				},
				{
					"onsetTime":7.9285635,
					"deltaTime":0.2142855,
					"length":0.2142855,
					"velocity":100,
					"pitch":60
				},
				{
					"onsetTime":8.142849,
					"deltaTime":0.2142855,
					"length":0.053571375,
					"velocity":100,
					"pitch":60
				},
				{
					"onsetTime":8.3571345,
					"deltaTime":0.2142855,
					"length":0.2142855,
					"velocity":100,
					"pitch":60
				},
				{
					"onsetTime":8.57142,
					"deltaTime":0.2142855,
					"length":0.2142855,
					"velocity":100,
					"pitch":60
				},
				{
					"onsetTime":8.7857055,
					"deltaTime":0.2142855,
					"length":0.2142855,
					"velocity":100,
					"pitch":60
				},
				{
					"onsetTime":8.999991,
					"deltaTime":0.2142855,
					"length":0.142857,
					"velocity":100,
					"pitch":60
				},
				{
					"onsetTime":9.2142765,
					"deltaTime":0.2142855,
					"length":0.0714285,
					"velocity":100,
					"pitch":60
				},
				{
					"onsetTime":9.285705,
					"deltaTime":0.0714285,
					"length":0.142857,
					"velocity":100,
					"pitch":60
				},
				{
					"onsetTime":9.428562,
					"deltaTime":0.142857,
					"length":0.2142855,
					"velocity":100,
					"pitch":60
				},
				{
					"onsetTime":9.6428475,
					"deltaTime":0.2142855,
					"length":0.2142855,
					"velocity":100,
					"pitch":60
				},
				{
					"onsetTime":9.857133,
					"deltaTime":0.2142855,
					"length":0.053571375,
					"velocity":100,
					"pitch":60
				},
				{
					"onsetTime":10.01784713,
					"deltaTime":0.160714125,
					"length":0.053571375,
					"velocity":100,
					"pitch":60
				},
				{
					"onsetTime":10.0714185,
					"deltaTime":0.053571375,
					"length":0.2142855,
					"velocity":100,
					"pitch":60
				},
				{
					"onsetTime":10.285704,
					"deltaTime":0.2142855,
					"length":0.2142855,
					"velocity":100,
					"pitch":60
				},
				{
					"onsetTime":10.4999895,
					"deltaTime":0.2142855,
					"length":0.2142855,
					"velocity":100,
					"pitch":60
				},
				{
					"onsetTime":10.714275,
					"deltaTime":0.2142855,
					"length":0.1294641563,
					"velocity":100,
					"pitch":60
				},
				{
					"onsetTime":10.857132,
					"deltaTime":0.142857,
					"length":0.1294641563,
					"velocity":100,
					"pitch":60
				},
				{
					"onsetTime":10.999989,
					"deltaTime":0.142857,
					"length":0.1294641563,
					"velocity":100,
					"pitch":60
				},
				{
					"onsetTime":11.142846,
					"deltaTime":0.142857,
					"length":0.2142855,
					"velocity":100,
					"pitch":60
				},
				{
					"onsetTime":11.3571315,
					"deltaTime":0.2142855,
					"length":0.2142855,
					"velocity":100,
					"pitch":60
				},
				{
					"onsetTime":11.571417,
					"deltaTime":0.2142855,
					"length":0.053571375,
					"velocity":100,
					"pitch":60
				},
				{
					"onsetTime":11.7857025,
					"deltaTime":0.2142855,
					"length":0.2142855,
					"velocity":100,
					"pitch":60
				},
				{
					"onsetTime":11.999988,
					"deltaTime":0.2142855,
					"length":0.2142855,
					"velocity":100,
					"pitch":60
				},
				{
					"onsetTime":12.2142735,
					"deltaTime":0.2142855,
					"length":0.2142855,
					"velocity":100,
					"pitch":60
				},
				{
					"onsetTime":12.428559,
					"deltaTime":0.2142855,
					"length":0.142857,
					"velocity":100,
					"pitch":60
				},
				{
					"onsetTime":12.571416,
					"deltaTime":0.142857,
					"length":0.0714285,
					"velocity":100,
					"pitch":60
				},
				{
					"onsetTime":12.6428445,
					"deltaTime":0.0714285,
					"length":0.0714285,
					"velocity":100,
					"pitch":60
				},
				{
					"onsetTime":12.714273,
					"deltaTime":0.0714285,
					"length":0.142857,
					"velocity":100,
					"pitch":60
				},
				{
					"onsetTime":12.85713,
					"deltaTime":0.142857,
					"length":0.2142855,
					"velocity":100,
					"pitch":60
				},
				{
					"onsetTime":13.0714155,
					"deltaTime":0.2142855,
					"length":0.2142855,
					"velocity":100,
					"pitch":60
				},
				{
					"onsetTime":13.285701,
					"deltaTime":0.2142855,
					"length":0.053571375,
					"velocity":100,
					"pitch":59
				},
				{
					"onsetTime":13.39284375,
					"deltaTime":0.10714275,
					"length":0.053571375,
					"velocity":100,
					"pitch":59
				},
				{
					"onsetTime":13.4999865,
					"deltaTime":0.10714275,
					"length":0.2142855,
					"velocity":100,
					"pitch":59
				}
			]
		},
		{
			"fileName":"CBMIX_midi_CBMIX_midi_hihat_loops_CBMIX_midi_hihat_loop_140_04",
			"OnsetNumber":52,
			"NoteTab":[
				{
					"onsetTime":0,
					"deltaTime":0,
					"length":0.428571,
					"velocity":100,
					"pitch":60
				},
				{
					"onsetTime":0.428571,
					"deltaTime":0.428571,
					"length":0.10714275,
					"velocity":100,
					"pitch":60
				},
				{
					"onsetTime":0.53571375,
					"deltaTime":0.10714275,
					"length":0.32142825,
					"velocity":100,
					"pitch":60
				},
				{
					"onsetTime":0.857142,
					"deltaTime":0.32142825,
					"length":0.428571,
					"velocity":100,
					"pitch":60
				},
				{
					"onsetTime":1.285713,
					"deltaTime":0.428571,
					"length":0.2142855,
					"velocity":100,
					"pitch":60
				},
				{
					"onsetTime":1.4999985,
					"deltaTime":0.2142855,
					"length":0.2142855,
					"velocity":100,
					"pitch":60
				},
				{
					"onsetTime":1.714284,
					"deltaTime":0.2142855,
					"length":0.428571,
					"velocity":100,
					"pitch":60
				},
				{
					"onsetTime":2.142855,
					"deltaTime":0.428571,
					"length":0.10714275,
					"velocity":100,
					"pitch":60
				},
				{
					"onsetTime":2.24999775,
					"deltaTime":0.10714275,
					"length":0.10714275,
					"velocity":100,
					"pitch":60
				},
				{
					"onsetTime":2.3571405,
					"deltaTime":0.10714275,
					"length":0.2142855,
					"velocity":100,
					"pitch":60
				},
				{
					"onsetTime":2.571426,
					"deltaTime":0.2142855,
					"length":0.428571,
					"velocity":100,
					"pitch":60
				},
				{
					"onsetTime":2.999997,
					"deltaTime":0.428571,
					"length":0.2142855,
					"velocity":100,
					"pitch":60
				},
				{
					"onsetTime":3.2142825,
					"deltaTime":0.2142855,
					"length":0.2142855,
					"velocity":100,
					"pitch":60
				},
				{
					"onsetTime":3.428568,
					"deltaTime":0.2142855,
					"length":0.428571,
					"velocity":100,
					"pitch":60
				},
				{
					"onsetTime":3.857139,
					"deltaTime":0.428571,
					"length":0.10714275,
					"velocity":100,
					"pitch":60
				},
				{
					"onsetTime":3.96428175,
					"deltaTime":0.10714275,
					"length":0.32142825,
					"velocity":100,
					"pitch":60
				},
				{
					"onsetTime":4.28571,
					"deltaTime":0.32142825,
					"length":0.428571,
					"velocity":100,
					"pitch":60
				},
				{
					"onsetTime":4.714281,
					"deltaTime":0.428571,
					"length":0.2142855,
					"velocity":100,
					"pitch":60
				},
				{
					"onsetTime":4.9285665,
					"deltaTime":0.2142855,
					"length":0.2142855,
					"velocity":100,
					"pitch":60
				},
				{
					"onsetTime":5.142852,
					"deltaTime":0.2142855,
					"length":0.428571,
					"velocity":100,
					"pitch":60
				},
				{
					"onsetTime":5.571423,
					"deltaTime":0.428571,
					"length":0.10714275,
					"velocity":100,
					"pitch":60
				},
				{
					"onsetTime":5.67856575,
					"deltaTime":0.10714275,
					"length":0.10714275,
					"velocity":100,
					"pitch":60
				},
				{
					"onsetTime":5.7857085,
					"deltaTime":0.10714275,
					"length":0.2142855,
					"velocity":100,
					"pitch":60
				},
				{
					"onsetTime":5.999994,
					"deltaTime":0.2142855,
					"length":0.428571,
					"velocity":100,
					"pitch":60
				},
				{
					"onsetTime":6.428565,
					"deltaTime":0.428571,
					"length":0.2142855,
					"velocity":100,
					"pitch":60
				},
				{
					"onsetTime":6.6428505,
					"deltaTime":0.2142855,
					"length":0.2142855,
					"velocity":100,
					"pitch":60
				},
				{
					"onsetTime":6.857136,
					"deltaTime":0.2142855,
					"length":0.428571,
					"velocity":100,
					"pitch":60
				},
				{
					"onsetTime":7.285707,
					"deltaTime":0.428571,
					"length":0.10714275,
					"velocity":100,
					"pitch":60
				},
				{
					"onsetTime":7.39284975,
					"deltaTime":0.10714275,
					"length":0.32142825,
					"velocity":100,
					"pitch":60
				},
				{
					"onsetTime":7.714278,
					"deltaTime":0.32142825,
					"length":0.428571,
					"velocity":100,
					"pitch":60
				},
				{
					"onsetTime":8.142849,
					"deltaTime":0.428571,
					"length":0.2142855,
					"velocity":100,
					"pitch":60
				},
				{
					"onsetTime":8.3571345,
					"deltaTime":0.2142855,
					"length":0.2142855,
					"velocity":100,
					"pitch":60
				},
				{
					"onsetTime":8.57142,
					"deltaTime":0.2142855,
					"length":0.428571,
					"velocity":100,
					"pitch":60
				},
				{
					"onsetTime":8.999991,
					"deltaTime":0.428571,
					"length":0.10714275,
					"velocity":100,
					"pitch":60
				},
				{
					"onsetTime":9.10713375,
					"deltaTime":0.10714275,
					"length":0.10714275,
					"velocity":100,
					"pitch":60
				},
				{
					"onsetTime":9.2142765,
					"deltaTime":0.10714275,
					"length":0.2142855,
					"velocity":100,
					"pitch":60
				},
				{
					"onsetTime":9.428562,
					"deltaTime":0.2142855,
					"length":0.428571,
					"velocity":100,
					"pitch":60
				},
				{
					"onsetTime":9.857133,
					"deltaTime":0.428571,
					"length":0.2142855,
					"velocity":100,
					"pitch":60
				},
				{
					"onsetTime":10.0714185,
					"deltaTime":0.2142855,
					"length":0.2142855,
					"velocity":100,
					"pitch":60
				},
				{
					"onsetTime":10.285704,
					"deltaTime":0.2142855,
					"length":0.428571,
					"velocity":100,
					"pitch":60
				},
				{
					"onsetTime":10.714275,
					"deltaTime":0.428571,
					"length":0.10714275,
					"velocity":100,
					"pitch":60
				},
				{
					"onsetTime":10.82141775,
					"deltaTime":0.10714275,
					"length":0.32142825,
					"velocity":100,
					"pitch":60
				},
				{
					"onsetTime":11.142846,
					"deltaTime":0.32142825,
					"length":0.428571,
					"velocity":100,
					"pitch":60
				},
				{
					"onsetTime":11.571417,
					"deltaTime":0.428571,
					"length":0.2142855,
					"velocity":100,
					"pitch":60
				},
				{
					"onsetTime":11.7857025,
					"deltaTime":0.2142855,
					"length":0.2142855,
					"velocity":100,
					"pitch":60
				},
				{
					"onsetTime":11.999988,
					"deltaTime":0.2142855,
					"length":0.428571,
					"velocity":100,
					"pitch":60
				},
				{
					"onsetTime":12.428559,
					"deltaTime":0.428571,
					"length":0.10714275,
					"velocity":100,
					"pitch":60
				},
				{
					"onsetTime":12.53570175,
					"deltaTime":0.10714275,
					"length":0.10714275,
					"velocity":100,
					"pitch":60
				},
				{
					"onsetTime":12.6428445,
					"deltaTime":0.10714275,
					"length":0.2142855,
					"velocity":100,
					"pitch":60
				},
				{
					"onsetTime":12.85713,
					"deltaTime":0.2142855,
					"length":0.428571,
					"velocity":100,
					"pitch":60
				},
				{
					"onsetTime":13.285701,
					"deltaTime":0.428571,
					"length":0.2142855,
					"velocity":100,
					"pitch":60
				},
				{
					"onsetTime":13.4999865,
					"deltaTime":0.2142855,
					"length":0.2142855,
					"velocity":100,
					"pitch":60
				}
			]
		},
		{
			"fileName":"CBMIX_midi_CBMIX_midi_hihat_loops_CBMIX_midi_hihat_loop_140_07",
			"OnsetNumber":55,
			"NoteTab":[
				{
					"onsetTime":0,
					"deltaTime":0,
					"length":0.2142855,
					"velocity":100,
					"pitch":60
				},
				{
					"onsetTime":0.2142855,
					"deltaTime":0.2142855,
					"length":0.2142855,
					"velocity":100,
					"pitch":60
				},
				{
					"onsetTime":0.428571,
					"deltaTime":0.2142855,
					"length":0.10714275,
					"velocity":100,
					"pitch":60
				},
				{
					"onsetTime":0.53571375,
					"deltaTime":0.10714275,
					"length":0.10714275,
					"velocity":100,
					"pitch":60
				},
				{
					"onsetTime":0.6428565,
					"deltaTime":0.10714275,
					"length":0.2142855,
					"velocity":100,
					"pitch":60
				},
				{
					"onsetTime":0.857142,
					"deltaTime":0.2142855,
					"length":0.2142855,
					"velocity":100,
					"pitch":60
				},
				{
					"onsetTime":1.0714275,
					"deltaTime":0.2142855,
					"length":0.2142855,
					"velocity":100,
					"pitch":60
				},
				{
					"onsetTime":1.285713,
					"deltaTime":0.2142855,
					"length":0.2142855,
					"velocity":100,
					"pitch":60
				},
				{
					"onsetTime":1.4999985,
					"deltaTime":0.2142855,
					"length":0.2142855,
					"velocity":100,
					"pitch":60
				},
				{
					"onsetTime":1.714284,
					"deltaTime":0.2142855,
					"length":0.2142855,
					"velocity":100,
					"pitch":60
				},
				{
					"onsetTime":1.9285695,
					"deltaTime":0.2142855,
					"length":0.2142855,
					"velocity":100,
					"pitch":60
				},
				{
					"onsetTime":2.142855,
					"deltaTime":0.2142855,
					"length":0.10714275,
					"velocity":100,
					"pitch":60
				},
				{
					"onsetTime":2.24999775,
					"deltaTime":0.10714275,
					"length":0.10714275,
					"velocity":100,
					"pitch":60
				},
				{
					"onsetTime":2.3571405,
					"deltaTime":0.10714275,
					"length":0.6428565,
					"velocity":100,
					"pitch":60
				},
				{
					"onsetTime":2.999997,
					"deltaTime":0.6428565,
					"length":0.2142855,
					"velocity":100,
					"pitch":60
				},
				{
					"onsetTime":3.2142825,
					"deltaTime":0.2142855,
					"length":0.2142855,
					"velocity":100,
					"pitch":60
				},
				{
					"onsetTime":3.428568,
					"deltaTime":0.2142855,
					"length":0.2142855,
					"velocity":100,
					"pitch":60
				},
				{
					"onsetTime":3.6428535,
					"deltaTime":0.2142855,
					"length":0.2142855,
					"velocity":100,
					"pitch":60
				},
				{
					"onsetTime":3.857139,
					"deltaTime":0.2142855,
					"length":0.10714275,
					"velocity":100,
					"pitch":60
				},
				{
					"onsetTime":3.96428175,
					"deltaTime":0.10714275,
					"length":0.74999925,
					"velocity":100,
					"pitch":60
				},
				{
					"onsetTime":4.714281,
					"deltaTime":0.74999925,
					"length":0.2142855,
					"velocity":100,
					"pitch":60
				},
				{
					"onsetTime":4.9285665,
					"deltaTime":0.2142855,
					"length":0.2142855,
					"velocity":100,
					"pitch":60
				},
				{
					"onsetTime":5.142852,
					"deltaTime":0.2142855,
					"length":0.2142855,
					"velocity":100,
					"pitch":60
				},
				{
					"onsetTime":5.3571375,
					"deltaTime":0.2142855,
					"length":0.2142855,
					"velocity":100,
					"pitch":60
				},
				{
					"onsetTime":5.571423,
					"deltaTime":0.2142855,
					"length":0.10714275,
					"velocity":100,
					"pitch":60
				},
				{
					"onsetTime":5.67856575,
					"deltaTime":0.10714275,
					"length":0.10714275,
					"velocity":100,
					"pitch":60
				},
				{
					"onsetTime":5.7857085,
					"deltaTime":0.10714275,
					"length":0.6428565,
					"velocity":100,
					"pitch":60
				},
				{
					"onsetTime":6.428565,
					"deltaTime":0.6428565,
					"length":0.2142855,
					"velocity":100,
					"pitch":60
				},
				{
					"onsetTime":6.6428505,
					"deltaTime":0.2142855,
					"length":0.2142855,
					"velocity":100,
					"pitch":60
				},
				{
					"onsetTime":6.857136,
					"deltaTime":0.2142855,
					"length":0.2142855,
					"velocity":100,
					"pitch":60
				},
				{
					"onsetTime":7.0714215,
					"deltaTime":0.2142855,
					"length":0.2142855,
					"velocity":100,
					"pitch":60
				},
				{
					"onsetTime":7.285707,
					"deltaTime":0.2142855,
					"length":0.10714275,
					"velocity":100,
					"pitch":60
				},
				{
					"onsetTime":7.39284975,
					"deltaTime":0.10714275,
					"length":0.74999925,
					"velocity":100,
					"pitch":60
				},
				{
					"onsetTime":8.142849,
					"deltaTime":0.74999925,
					"length":0.2142855,
					"velocity":100,
					"pitch":60
				},
				{
					"onsetTime":8.3571345,
					"deltaTime":0.2142855,
					"length":0.2142855,
					"velocity":100,
					"pitch":60
				},
				{
					"onsetTime":8.57142,
					"deltaTime":0.2142855,
					"length":0.2142855,
					"velocity":100,
					"pitch":60
				},
				{
					"onsetTime":8.7857055,
					"deltaTime":0.2142855,
					"length":0.2142855,
					"velocity":100,
					"pitch":60
				},
				{
					"onsetTime":8.999991,
					"deltaTime":0.2142855,
					"length":0.10714275,
					"velocity":100,
					"pitch":60
				},
				{
					"onsetTime":9.10713375,
					"deltaTime":0.10714275,
					"length":0.10714275,
					"velocity":100,
					"pitch":60
				},
				{
					"onsetTime":9.2142765,
					"deltaTime":0.10714275,
					"length":0.6428565,
					"velocity":100,
					"pitch":60
				},
				{
					"onsetTime":9.857133,
					"deltaTime":0.6428565,
					"length":0.2142855,
					"velocity":100,
					"pitch":60
				},
				{
					"onsetTime":10.0714185,
					"deltaTime":0.2142855,
					"length":0.2142855,
					"velocity":100,
					"pitch":60
				},
				{
					"onsetTime":10.285704,
					"deltaTime":0.2142855,
					"length":0.2142855,
					"velocity":100,
					"pitch":60
				},
				{
					"onsetTime":10.4999895,
					"deltaTime":0.2142855,
					"length":0.2142855,
					"velocity":100,
					"pitch":60
				},
				{
					"onsetTime":10.714275,
					"deltaTime":0.2142855,
					"length":0.10714275,
					"velocity":100,
					"pitch":60
				},
				{
					"onsetTime":10.82141775,
					"deltaTime":0.10714275,
					"length":0.74999925,
					"velocity":100,
					"pitch":60
				},
				{
					"onsetTime":11.571417,
					"deltaTime":0.74999925,
					"length":0.2142855,
					"velocity":100,
					"pitch":60
				},
				{
					"onsetTime":11.7857025,
					"deltaTime":0.2142855,
					"length":0.2142855,
					"velocity":100,
					"pitch":60
				},
				{
					"onsetTime":11.999988,
					"deltaTime":0.2142855,
					"length":0.2142855,
					"velocity":100,
					"pitch":60
				},
				{
					"onsetTime":12.2142735,
					"deltaTime":0.2142855,
					"length":0.2142855,
					"velocity":100,
					"pitch":60
				},
				{
					"onsetTime":12.428559,
					"deltaTime":0.2142855,
					"length":0.10714275,
					"velocity":100,
					"pitch":60
				},
				{
					"onsetTime":12.53570175,
					"deltaTime":0.10714275,
					"length":0.10714275,
					"velocity":100,
					"pitch":60
				},
				{
					"onsetTime":12.6428445,
					"deltaTime":0.10714275,
					"length":0.6428565,
					"velocity":100,
					"pitch":60
				},
				{
					"onsetTime":13.285701,
					"deltaTime":0.6428565,
					"length":0.2142855,
					"velocity":100,
					"pitch":60
				},
				{
					"onsetTime":13.4999865,
					"deltaTime":0.2142855,
					"length":0.2142855,
					"velocity":100,
					"pitch":60
				}
			]
		},
		{
			"fileName":"CBMIX_midi_CBMIX_midi_hihat_loops_CBMIX_midi_hihat_loop_140_11",
			"OnsetNumber":66,
			"NoteTab":[
				{
					"onsetTime":0,
					"deltaTime":0,
					"length":0.10714275,
					"velocity":100,
					"pitch":59
				},
				{
					"onsetTime":0.10714275,
					"deltaTime":0.10714275,
					"length":0.10714275,
					"velocity":100,
					"pitch":59
				},
				{
					"onsetTime":0.2142855,
					"deltaTime":0.10714275,
					"length":0.10714275,
					"velocity":100,
					"pitch":59
				},
				{
					"onsetTime":0.428571,
					"deltaTime":0.2142855,
					"length":0.10714275,
					"velocity":100,
					"pitch":59
				},
				{
					"onsetTime":0.6428565,
					"deltaTime":0.2142855,
					"length":0.10714275,
					"velocity":100,
					"pitch":59
				},
				{
					"onsetTime":0.857142,
					"deltaTime":0.2142855,
					"length":0.10714275,
					"velocity":100,
					"pitch":59
				},
				{
					"onsetTime":1.0714275,
					"deltaTime":0.2142855,
					"length":0.10714275,
					"velocity":100,
					"pitch":59
				},
				{
					"onsetTime":1.285713,
					"deltaTime":0.2142855,
					"length":0.10714275,
					"velocity":100,
					"pitch":59
				},
				{
					"onsetTime":1.4999985,
					"deltaTime":0.2142855,
					"length":0.10714275,
					"velocity":100,
					"pitch":59
				},
				{
					"onsetTime":1.714284,
					"deltaTime":0.2142855,
					"length":0.10714275,
					"velocity":100,
					"pitch":59
				},
				{
					"onsetTime":1.9285695,
					"deltaTime":0.2142855,
					"length":0.10714275,
					"velocity":100,
					"pitch":59
				},
				{
					"onsetTime":2.142855,
					"deltaTime":0.2142855,
					"length":0.10714275,
					"velocity":100,
					"pitch":59
				},
				{
					"onsetTime":2.3571405,
					"deltaTime":0.2142855,
					"length":0.10714275,
					"velocity":100,
					"pitch":59
				},
				{
					"onsetTime":2.571426,
					"deltaTime":0.2142855,
					"length":0.10714275,
					"velocity":100,
					"pitch":59
				},
				{
					"onsetTime":2.7857115,
					"deltaTime":0.2142855,
					"length":0.10714275,
					"velocity":100,
					"pitch":59
				},
				{
					"onsetTime":2.999997,
					"deltaTime":0.2142855,
					"length":0.10714275,
					"velocity":100,
					"pitch":59
				},
				{
					"onsetTime":3.2142825,
					"deltaTime":0.2142855,
					"length":0.10714275,
					"velocity":100,
					"pitch":59
				},
				{
					"onsetTime":3.428568,
					"deltaTime":0.2142855,
					"length":0.10714275,
					"velocity":100,
					"pitch":59
				},
				{
					"onsetTime":3.6428535,
					"deltaTime":0.2142855,
					"length":0.10714275,
					"velocity":100,
					"pitch":59
				},
				{
					"onsetTime":3.857139,
					"deltaTime":0.2142855,
					"length":0.10714275,
					"velocity":100,
					"pitch":59
				},
				{
					"onsetTime":4.0714245,
					"deltaTime":0.2142855,
					"length":0.10714275,
					"velocity":100,
					"pitch":59
				},
				{
					"onsetTime":4.28571,
					"deltaTime":0.2142855,
					"length":0.10714275,
					"velocity":100,
					"pitch":59
				},
				{
					"onsetTime":4.4999955,
					"deltaTime":0.2142855,
					"length":0.10714275,
					"velocity":100,
					"pitch":59
				},
				{
					"onsetTime":4.714281,
					"deltaTime":0.2142855,
					"length":0.10714275,
					"velocity":100,
					"pitch":59
				},
				{
					"onsetTime":4.9285665,
					"deltaTime":0.2142855,
					"length":0.10714275,
					"velocity":100,
					"pitch":59
				},
				{
					"onsetTime":5.142852,
					"deltaTime":0.2142855,
					"length":0.10714275,
					"velocity":100,
					"pitch":59
				},
				{
					"onsetTime":5.3571375,
					"deltaTime":0.2142855,
					"length":0.10714275,
					"velocity":100,
					"pitch":59
				},
				{
					"onsetTime":5.571423,
					"deltaTime":0.2142855,
					"length":0.10714275,
					"velocity":100,
					"pitch":59
				},
				{
					"onsetTime":5.7857085,
					"deltaTime":0.2142855,
					"length":0.10714275,
					"velocity":100,
					"pitch":59
				},
				{
					"onsetTime":5.999994,
					"deltaTime":0.2142855,
					"length":0.10714275,
					"velocity":100,
					"pitch":59
				},
				{
					"onsetTime":6.2142795,
					"deltaTime":0.2142855,
					"length":0.10714275,
					"velocity":100,
					"pitch":59
				},
				{
					"onsetTime":6.428565,
					"deltaTime":0.2142855,
					"length":0.10714275,
					"velocity":100,
					"pitch":59
				},
				{
					"onsetTime":6.6428505,
					"deltaTime":0.2142855,
					"length":0.10714275,
					"velocity":100,
					"pitch":59
				},
				{
					"onsetTime":6.857136,
					"deltaTime":0.2142855,
					"length":0.10714275,
					"velocity":100,
					"pitch":59
				},
				{
					"onsetTime":6.96427875,
					"deltaTime":0.10714275,
					"length":0.10714275,
					"velocity":100,
					"pitch":59
				},
				{
					"onsetTime":7.0714215,
					"deltaTime":0.10714275,
					"length":0.10714275,
					"velocity":100,
					"pitch":59
				},
				{
					"onsetTime":7.285707,
					"deltaTime":0.2142855,
					"length":0.10714275,
					"velocity":100,
					"pitch":59
				},
				{
					"onsetTime":7.4999925,
					"deltaTime":0.2142855,
					"length":0.10714275,
					"velocity":100,
					"pitch":59
				},
				{
					"onsetTime":7.714278,
					"deltaTime":0.2142855,
					"length":0.10714275,
					"velocity":100,
					"pitch":59
				},
				{
					"onsetTime":7.9285635,
					"deltaTime":0.2142855,
					"length":0.10714275,
					"velocity":100,
					"pitch":59
				},
				{
					"onsetTime":8.142849,
					"deltaTime":0.2142855,
					"length":0.10714275,
					"velocity":100,
					"pitch":59
				},
				{
					"onsetTime":8.3571345,
					"deltaTime":0.2142855,
					"length":0.10714275,
					"velocity":100,
					"pitch":59
				},
				{
					"onsetTime":8.57142,
					"deltaTime":0.2142855,
					"length":0.10714275,
					"velocity":100,
					"pitch":59
				},
				{
					"onsetTime":8.7857055,
					"deltaTime":0.2142855,
					"length":0.10714275,
					"velocity":100,
					"pitch":59
				},
				{
					"onsetTime":8.999991,
					"deltaTime":0.2142855,
					"length":0.10714275,
					"velocity":100,
					"pitch":59
				},
				{
					"onsetTime":9.2142765,
					"deltaTime":0.2142855,
					"length":0.10714275,
					"velocity":100,
					"pitch":59
				},
				{
					"onsetTime":9.428562,
					"deltaTime":0.2142855,
					"length":0.10714275,
					"velocity":100,
					"pitch":59
				},
				{
					"onsetTime":9.6428475,
					"deltaTime":0.2142855,
					"length":0.10714275,
					"velocity":100,
					"pitch":59
				},
				{
					"onsetTime":9.857133,
					"deltaTime":0.2142855,
					"length":0.10714275,
					"velocity":100,
					"pitch":59
				},
				{
					"onsetTime":10.0714185,
					"deltaTime":0.2142855,
					"length":0.10714275,
					"velocity":100,
					"pitch":59
				},
				{
					"onsetTime":10.285704,
					"deltaTime":0.2142855,
					"length":0.10714275,
					"velocity":100,
					"pitch":59
				},
				{
					"onsetTime":10.4999895,
					"deltaTime":0.2142855,
					"length":0.10714275,
					"velocity":100,
					"pitch":59
				},
				{
					"onsetTime":10.714275,
					"deltaTime":0.2142855,
					"length":0.10714275,
					"velocity":100,
					"pitch":59
				},
				{
					"onsetTime":10.9285605,
					"deltaTime":0.2142855,
					"length":0.10714275,
					"velocity":100,
					"pitch":59
				},
				{
					"onsetTime":11.142846,
					"deltaTime":0.2142855,
					"length":0.10714275,
					"velocity":100,
					"pitch":59
				},
				{
					"onsetTime":11.3571315,
					"deltaTime":0.2142855,
					"length":0.10714275,
					"velocity":100,
					"pitch":59
				},
				{
					"onsetTime":11.571417,
					"deltaTime":0.2142855,
					"length":0.10714275,
					"velocity":100,
					"pitch":59
				},
				{
					"onsetTime":11.7857025,
					"deltaTime":0.2142855,
					"length":0.10714275,
					"velocity":100,
					"pitch":59
				},
				{
					"onsetTime":11.999988,
					"deltaTime":0.2142855,
					"length":0.10714275,
					"velocity":100,
					"pitch":59
				},
				{
					"onsetTime":12.2142735,
					"deltaTime":0.2142855,
					"length":0.10714275,
					"velocity":100,
					"pitch":59
				},
				{
					"onsetTime":12.428559,
					"deltaTime":0.2142855,
					"length":0.10714275,
					"velocity":100,
					"pitch":59
				},
				{
					"onsetTime":12.6428445,
					"deltaTime":0.2142855,
					"length":0.10714275,
					"velocity":100,
					"pitch":59
				},
				{
					"onsetTime":12.85713,
					"deltaTime":0.2142855,
					"length":0.10714275,
					"velocity":100,
					"pitch":59
				},
				{
					"onsetTime":13.0714155,
					"deltaTime":0.2142855,
					"length":0.10714275,
					"velocity":100,
					"pitch":59
				},
				{
					"onsetTime":13.285701,
					"deltaTime":0.2142855,
					"length":0.10714275,
					"velocity":100,
					"pitch":59
				},
				{
					"onsetTime":13.4999865,
					"deltaTime":0.2142855,
					"length":0.10714275,
					"velocity":100,
					"pitch":59
				}
			]
		},
		{
			"fileName":"CBMIX_midi_CBMIX_midi_hihat_loops_CBMIX_midi_hihat_loop_140_12",
			"OnsetNumber":63,
			"NoteTab":[
				{
					"onsetTime":0.017857125,
					"deltaTime":0,
					"length":0.196428375,
					"velocity":98,
					"pitch":61
				},
				{
					"onsetTime":0.2142855,
					"deltaTime":0.196428375,
					"length":0.2142855,
					"velocity":97,
					"pitch":58
				},
				{
					"onsetTime":0.428571,
					"deltaTime":0.2142855,
					"length":0.2142855,
					"velocity":98,
					"pitch":59
				},
				{
					"onsetTime":0.6428565,
					"deltaTime":0.2142855,
					"length":0.2142855,
					"velocity":99,
					"pitch":61
				},
				{
					"onsetTime":0.874999125,
					"deltaTime":0.232142625,
					"length":0.196428375,
					"velocity":102,
					"pitch":60
				},
				{
					"onsetTime":1.0714275,
					"deltaTime":0.196428375,
					"length":0.2142855,
					"velocity":101,
					"pitch":58
				},
				{
					"onsetTime":1.285713,
					"deltaTime":0.2142855,
					"length":0.2142855,
					"velocity":97,
					"pitch":60
				},
				{
					"onsetTime":1.4999985,
					"deltaTime":0.2142855,
					"length":0.2142855,
					"velocity":99,
					"pitch":61
				},
				{
					"onsetTime":1.714284,
					"deltaTime":0.2142855,
					"length":0.2142855,
					"velocity":101,
					"pitch":59
				},
				{
					"onsetTime":1.9285695,
					"deltaTime":0.2142855,
					"length":0.2142855,
					"velocity":101,
					"pitch":58
				},
				{
					"onsetTime":2.142855,
					"deltaTime":0.2142855,
					"length":0.2142855,
					"velocity":98,
					"pitch":59
				},
				{
					"onsetTime":2.3571405,
					"deltaTime":0.2142855,
					"length":0.2142855,
					"velocity":97,
					"pitch":61
				},
				{
					"onsetTime":2.571426,
					"deltaTime":0.2142855,
					"length":0.2142855,
					"velocity":98,
					"pitch":59
				},
				{
					"onsetTime":2.7857115,
					"deltaTime":0.2142855,
					"length":0.2142855,
					"velocity":102,
					"pitch":58
				},
				{
					"onsetTime":2.999997,
					"deltaTime":0.2142855,
					"length":0.2142855,
					"velocity":98,
					"pitch":60
				},
				{
					"onsetTime":3.428568,
					"deltaTime":0.428571,
					"length":0.2142855,
					"velocity":98,
					"pitch":59
				},
				{
					"onsetTime":3.6428535,
					"deltaTime":0.2142855,
					"length":0.2142855,
					"velocity":102,
					"pitch":58
				},
				{
					"onsetTime":3.857139,
					"deltaTime":0.2142855,
					"length":0.2142855,
					"velocity":98,
					"pitch":59
				},
				{
					"onsetTime":4.0714245,
					"deltaTime":0.2142855,
					"length":0.2142855,
					"velocity":97,
					"pitch":61
				},
				{
					"onsetTime":4.28571,
					"deltaTime":0.2142855,
					"length":0.2142855,
					"velocity":99,
					"pitch":59
				},
				{
					"onsetTime":4.4999955,
					"deltaTime":0.2142855,
					"length":0.2142855,
					"velocity":98,
					"pitch":58
				},
				{
					"onsetTime":4.714281,
					"deltaTime":0.2142855,
					"length":0.2142855,
					"velocity":99,
					"pitch":60
				},
				{
					"onsetTime":4.9285665,
					"deltaTime":0.2142855,
					"length":0.2142855,
					"velocity":102,
					"pitch":61
				},
				{
					"onsetTime":5.142852,
					"deltaTime":0.2142855,
					"length":0.2142855,
					"velocity":101,
					"pitch":59
				},
				{
					"onsetTime":5.3571375,
					"deltaTime":0.2142855,
					"length":0.2142855,
					"velocity":97,
					"pitch":58
				},
				{
					"onsetTime":5.571423,
					"deltaTime":0.2142855,
					"length":0.2142855,
					"velocity":103,
					"pitch":59
				},
				{
					"onsetTime":5.7857085,
					"deltaTime":0.2142855,
					"length":0.2142855,
					"velocity":99,
					"pitch":61
				},
				{
					"onsetTime":6.017851125,
					"deltaTime":0.232142625,
					"length":0.196428375,
					"velocity":99,
					"pitch":60
				},
				{
					"onsetTime":6.2142795,
					"deltaTime":0.196428375,
					"length":0.2142855,
					"velocity":101,
					"pitch":58
				},
				{
					"onsetTime":6.428565,
					"deltaTime":0.2142855,
					"length":0.2142855,
					"velocity":102,
					"pitch":60
				},
				{
					"onsetTime":6.6428505,
					"deltaTime":0.2142855,
					"length":0.2142855,
					"velocity":102,
					"pitch":61
				},
				{
					"onsetTime":6.874993125,
					"deltaTime":0.232142625,
					"length":0.196428375,
					"velocity":98,
					"pitch":61
				},
				{
					"onsetTime":7.0714215,
					"deltaTime":0.196428375,
					"length":0.2142855,
					"velocity":97,
					"pitch":58
				},
				{
					"onsetTime":7.285707,
					"deltaTime":0.2142855,
					"length":0.2142855,
					"velocity":98,
					"pitch":59
				},
				{
					"onsetTime":7.4999925,
					"deltaTime":0.2142855,
					"length":0.2142855,
					"velocity":99,
					"pitch":61
				},
				{
					"onsetTime":7.732135125,
					"deltaTime":0.232142625,
					"length":0.196428375,
					"velocity":102,
					"pitch":60
				},
				{
					"onsetTime":7.9285635,
					"deltaTime":0.196428375,
					"length":0.2142855,
					"velocity":101,
					"pitch":58
				},
				{
					"onsetTime":8.142849,
					"deltaTime":0.2142855,
					"length":0.2142855,
					"velocity":97,
					"pitch":60
				},
				{
					"onsetTime":8.3571345,
					"deltaTime":0.2142855,
					"length":0.2142855,
					"velocity":99,
					"pitch":61
				},
				{
					"onsetTime":8.57142,
					"deltaTime":0.2142855,
					"length":0.2142855,
					"velocity":101,
					"pitch":59
				},
				{
					"onsetTime":8.7857055,
					"deltaTime":0.2142855,
					"length":0.2142855,
					"velocity":101,
					"pitch":58
				},
				{
					"onsetTime":8.999991,
					"deltaTime":0.2142855,
					"length":0.2142855,
					"velocity":98,
					"pitch":59
				},
				{
					"onsetTime":9.2142765,
					"deltaTime":0.2142855,
					"length":0.2142855,
					"velocity":97,
					"pitch":61
				},
				{
					"onsetTime":9.428562,
					"deltaTime":0.2142855,
					"length":0.2142855,
					"velocity":98,
					"pitch":59
				},
				{
					"onsetTime":9.6428475,
					"deltaTime":0.2142855,
					"length":0.2142855,
					"velocity":102,
					"pitch":58
				},
				{
					"onsetTime":9.857133,
					"deltaTime":0.2142855,
					"length":0.2142855,
					"velocity":98,
					"pitch":60
				},
				{
					"onsetTime":10.0714185,
					"deltaTime":0.2142855,
					"length":0.2142855,
					"velocity":97,
					"pitch":61
				},
				{
					"onsetTime":10.285704,
					"deltaTime":0.2142855,
					"length":0.2142855,
					"velocity":98,
					"pitch":59
				},
				{
					"onsetTime":10.4999895,
					"deltaTime":0.2142855,
					"length":0.2142855,
					"velocity":102,
					"pitch":58
				},
				{
					"onsetTime":10.714275,
					"deltaTime":0.2142855,
					"length":0.2142855,
					"velocity":98,
					"pitch":59
				},
				{
					"onsetTime":10.9285605,
					"deltaTime":0.2142855,
					"length":0.2142855,
					"velocity":97,
					"pitch":61
				},
				{
					"onsetTime":11.142846,
					"deltaTime":0.2142855,
					"length":0.2142855,
					"velocity":99,
					"pitch":59
				},
				{
					"onsetTime":11.3571315,
					"deltaTime":0.2142855,
					"length":0.2142855,
					"velocity":98,
					"pitch":58
				},
				{
					"onsetTime":11.571417,
					"deltaTime":0.2142855,
					"length":0.2142855,
					"velocity":99,
					"pitch":60
				},
				{
					"onsetTime":11.7857025,
					"deltaTime":0.2142855,
					"length":0.2142855,
					"velocity":102,
					"pitch":61
				},
				{
					"onsetTime":11.999988,
					"deltaTime":0.2142855,
					"length":0.2142855,
					"velocity":101,
					"pitch":59
				},
				{
					"onsetTime":12.2142735,
					"deltaTime":0.2142855,
					"length":0.2142855,
					"velocity":97,
					"pitch":58
				},
				{
					"onsetTime":12.428559,
					"deltaTime":0.2142855,
					"length":0.2142855,
					"velocity":103,
					"pitch":59
				},
				{
					"onsetTime":12.6428445,
					"deltaTime":0.2142855,
					"length":0.2142855,
					"velocity":99,
					"pitch":61
				},
				{
					"onsetTime":12.85713,
					"deltaTime":0.2142855,
					"length":0.2142855,
					"velocity":101,
					"pitch":59
				},
				{
					"onsetTime":13.0714155,
					"deltaTime":0.2142855,
					"length":0.2142855,
					"velocity":101,
					"pitch":58
				},
				{
					"onsetTime":13.285701,
					"deltaTime":0.2142855,
					"length":0.2142855,
					"velocity":102,
					"pitch":60
				},
				{
					"onsetTime":13.4999865,
					"deltaTime":0.2142855,
					"length":0.2142855,
					"velocity":102,
					"pitch":61
				}
			]
		},
		{
			"fileName":"CBMIX_midi_CBMIX_midi_hihat_loops_CBMIX_midi_hihat_loop_140_15",
			"OnsetNumber":64,
			"NoteTab":[
				{
					"onsetTime":0,
					"deltaTime":0,
					"length":0.2142855,
					"velocity":100,
					"pitch":60
				},
				{
					"onsetTime":0.2142855,
					"deltaTime":0.2142855,
					"length":0.053571375,
					"velocity":100,
					"pitch":60
				},
				{
					"onsetTime":0.32142825,
					"deltaTime":0.10714275,
					"length":0.053571375,
					"velocity":100,
					"pitch":60
				},
				{
					"onsetTime":0.428571,
					"deltaTime":0.10714275,
					"length":0.2142855,
					"velocity":100,
					"pitch":60
				},
				{
					"onsetTime":0.6428565,
					"deltaTime":0.2142855,
					"length":0.2142855,
					"velocity":100,
					"pitch":60
				},
				{
					"onsetTime":0.857142,
					"deltaTime":0.2142855,
					"length":0.2142855,
					"velocity":100,
					"pitch":60
				},
				{
					"onsetTime":1.4999985,
					"deltaTime":0.6428565,
					"length":0.2142855,
					"velocity":100,
					"pitch":59
				},
				{
					"onsetTime":1.714284,
					"deltaTime":0.2142855,
					"length":0.2142855,
					"velocity":100,
					"pitch":60
				},
				{
					"onsetTime":1.9285695,
					"deltaTime":0.2142855,
					"length":0.053571375,
					"velocity":100,
					"pitch":59
				},
				{
					"onsetTime":1.982140875,
					"deltaTime":0.053571375,
					"length":0.053571375,
					"velocity":100,
					"pitch":59
				},
				{
					"onsetTime":2.03571225,
					"deltaTime":0.053571375,
					"length":0.053571375,
					"velocity":100,
					"pitch":59
				},
				{
					"onsetTime":2.142855,
					"deltaTime":0.10714275,
					"length":0.2142855,
					"velocity":100,
					"pitch":60
				},
				{
					"onsetTime":2.3571405,
					"deltaTime":0.2142855,
					"length":0.2142855,
					"velocity":100,
					"pitch":60
				},
				{
					"onsetTime":2.571426,
					"deltaTime":0.2142855,
					"length":0.2142855,
					"velocity":100,
					"pitch":53
				},
				{
					"onsetTime":2.85714,
					"deltaTime":0.285714,
					"length":0.2142855,
					"velocity":100,
					"pitch":53
				},
				{
					"onsetTime":3.142854,
					"deltaTime":0.285714,
					"length":0.2142855,
					"velocity":100,
					"pitch":53
				},
				{
					"onsetTime":3.428568,
					"deltaTime":0.285714,
					"length":0.2142855,
					"velocity":100,
					"pitch":60
				},
				{
					"onsetTime":3.6428535,
					"deltaTime":0.2142855,
					"length":0.053571375,
					"velocity":100,
					"pitch":60
				},
				{
					"onsetTime":3.74999625,
					"deltaTime":0.10714275,
					"length":0.053571375,
					"velocity":100,
					"pitch":60
				},
				{
					"onsetTime":3.857139,
					"deltaTime":0.10714275,
					"length":0.2142855,
					"velocity":100,
					"pitch":60
				},
				{
					"onsetTime":4.0714245,
					"deltaTime":0.2142855,
					"length":0.2142855,
					"velocity":100,
					"pitch":60
				},
				{
					"onsetTime":4.28571,
					"deltaTime":0.2142855,
					"length":0.2142855,
					"velocity":100,
					"pitch":60
				},
				{
					"onsetTime":4.9285665,
					"deltaTime":0.6428565,
					"length":0.2142855,
					"velocity":100,
					"pitch":59
				},
				{
					"onsetTime":5.142852,
					"deltaTime":0.2142855,
					"length":0.2142855,
					"velocity":100,
					"pitch":60
				},
				{
					"onsetTime":5.3571375,
					"deltaTime":0.2142855,
					"length":0.053571375,
					"velocity":100,
					"pitch":59
				},
				{
					"onsetTime":5.410708875,
					"deltaTime":0.053571375,
					"length":0.053571375,
					"velocity":100,
					"pitch":59
				},
				{
					"onsetTime":5.571423,
					"deltaTime":0.160714125,
					"length":0.2142855,
					"velocity":100,
					"pitch":60
				},
				{
					"onsetTime":5.7857085,
					"deltaTime":0.2142855,
					"length":0.2142855,
					"velocity":100,
					"pitch":60
				},
				{
					"onsetTime":5.999994,
					"deltaTime":0.2142855,
					"length":0.2142855,
					"velocity":100,
					"pitch":53
				},
				{
					"onsetTime":6.285708,
					"deltaTime":0.285714,
					"length":0.2142855,
					"velocity":100,
					"pitch":53
				},
				{
					"onsetTime":6.571422,
					"deltaTime":0.285714,
					"length":0.2142855,
					"velocity":100,
					"pitch":53
				},
				{
					"onsetTime":6.857136,
					"deltaTime":0.285714,
					"length":0.2142855,
					"velocity":100,
					"pitch":60
				},
				{
					"onsetTime":7.0714215,
					"deltaTime":0.2142855,
					"length":0.053571375,
					"velocity":100,
					"pitch":60
				},
				{
					"onsetTime":7.124992875,
					"deltaTime":0.053571375,
					"length":0.053571375,
					"velocity":100,
					"pitch":60
				},
				{
					"onsetTime":7.285707,
					"deltaTime":0.160714125,
					"length":0.2142855,
					"velocity":100,
					"pitch":60
				},
				{
					"onsetTime":7.4999925,
					"deltaTime":0.2142855,
					"length":0.2142855,
					"velocity":100,
					"pitch":60
				},
				{
					"onsetTime":7.714278,
					"deltaTime":0.2142855,
					"length":0.2142855,
					"velocity":100,
					"pitch":60
				},
				{
					"onsetTime":8.3571345,
					"deltaTime":0.6428565,
					"length":0.2142855,
					"velocity":100,
					"pitch":59
				},
				{
					"onsetTime":8.57142,
					"deltaTime":0.2142855,
					"length":0.2142855,
					"velocity":100,
					"pitch":60
				},
				{
					"onsetTime":8.7857055,
					"deltaTime":0.2142855,
					"length":0.053571375,
					"velocity":100,
					"pitch":59
				},
				{
					"onsetTime":8.839276875,
					"deltaTime":0.053571375,
					"length":0.053571375,
					"velocity":100,
					"pitch":59
				},
				{
					"onsetTime":8.89284825,
					"deltaTime":0.053571375,
					"length":0.053571375,
					"velocity":100,
					"pitch":59
				},
				{
					"onsetTime":8.999991,
					"deltaTime":0.10714275,
					"length":0.2142855,
					"velocity":100,
					"pitch":60
				},
				{
					"onsetTime":9.2142765,
					"deltaTime":0.2142855,
					"length":0.2142855,
					"velocity":100,
					"pitch":60
				},
				{
					"onsetTime":9.428562,
					"deltaTime":0.2142855,
					"length":0.2142855,
					"velocity":100,
					"pitch":53
				},
				{
					"onsetTime":9.714276,
					"deltaTime":0.285714,
					"length":0.2142855,
					"velocity":100,
					"pitch":53
				},
				{
					"onsetTime":9.99999,
					"deltaTime":0.285714,
					"length":0.2142855,
					"velocity":100,
					"pitch":53
				},
				{
					"onsetTime":10.285704,
					"deltaTime":0.285714,
					"length":0.2142855,
					"velocity":100,
					"pitch":60
				},
				{
					"onsetTime":10.4999895,
					"deltaTime":0.2142855,
					"length":0.053571375,
					"velocity":100,
					"pitch":60
				},
				{
					"onsetTime":10.55356088,
					"deltaTime":0.053571375,
					"length":0.053571375,
					"velocity":100,
					"pitch":60
				},
				{
					"onsetTime":10.60713225,
					"deltaTime":0.053571375,
					"length":0.053571375,
					"velocity":100,
					"pitch":60
				},
				{
					"onsetTime":10.714275,
					"deltaTime":0.10714275,
					"length":0.2142855,
					"velocity":100,
					"pitch":60
				},
				{
					"onsetTime":10.9285605,
					"deltaTime":0.2142855,
					"length":0.2142855,
					"velocity":100,
					"pitch":60
				},
				{
					"onsetTime":11.142846,
					"deltaTime":0.2142855,
					"length":0.2142855,
					"velocity":100,
					"pitch":60
				},
				{
					"onsetTime":11.7857025,
					"deltaTime":0.6428565,
					"length":0.2142855,
					"velocity":100,
					"pitch":59
				},
				{
					"onsetTime":11.999988,
					"deltaTime":0.2142855,
					"length":0.2142855,
					"velocity":100,
					"pitch":60
				},
				{
					"onsetTime":12.2142735,
					"deltaTime":0.2142855,
					"length":0.053571375,
					"velocity":100,
					"pitch":59
				},
				{
					"onsetTime":12.26784488,
					"deltaTime":0.053571375,
					"length":0.053571375,
					"velocity":100,
					"pitch":59
				},
				{
					"onsetTime":12.32141625,
					"deltaTime":0.053571375,
					"length":0.053571375,
					"velocity":100,
					"pitch":59
				},
				{
					"onsetTime":12.428559,
					"deltaTime":0.10714275,
					"length":0.2142855,
					"velocity":100,
					"pitch":60
				},
				{
					"onsetTime":12.6428445,
					"deltaTime":0.2142855,
					"length":0.2142855,
					"velocity":100,
					"pitch":60
				},
				{
					"onsetTime":12.85713,
					"deltaTime":0.2142855,
					"length":0.2142855,
					"velocity":100,
					"pitch":53
				},
				{
					"onsetTime":13.142844,
					"deltaTime":0.285714,
					"length":0.2142855,
					"velocity":100,
					"pitch":53
				},
				{
					"onsetTime":13.428558,
					"deltaTime":0.285714,
					"length":0.2142855,
					"velocity":100,
					"pitch":53
				}
			]
		},
		{
			"fileName":"CBMIX_midi_CBMIX_midi_hihat_loops_CBMIX_midi_hihat_loop_140_18",
			"OnsetNumber":76,
			"NoteTab":[
				{
					"onsetTime":0,
					"deltaTime":0,
					"length":0.2142855,
					"velocity":93,
					"pitch":58
				},
				{
					"onsetTime":0.2142855,
					"deltaTime":0.2142855,
					"length":0.2142855,
					"velocity":97,
					"pitch":59
				},
				{
					"onsetTime":0.428571,
					"deltaTime":0.2142855,
					"length":0.2142855,
					"velocity":102,
					"pitch":60
				},
				{
					"onsetTime":0.6428565,
					"deltaTime":0.2142855,
					"length":0.2142855,
					"velocity":104,
					"pitch":60
				},
				{
					"onsetTime":0.857142,
					"deltaTime":0.2142855,
					"length":0.2142855,
					"velocity":100,
					"pitch":59
				},
				{
					"onsetTime":1.0714275,
					"deltaTime":0.2142855,
					"length":0.2142855,
					"velocity":95,
					"pitch":59
				},
				{
					"onsetTime":1.285713,
					"deltaTime":0.2142855,
					"length":0.2142855,
					"velocity":91,
					"pitch":60
				},
				{
					"onsetTime":1.4999985,
					"deltaTime":0.2142855,
					"length":0.2142855,
					"velocity":87,
					"pitch":60
				},
				{
					"onsetTime":1.714284,
					"deltaTime":0.2142855,
					"length":0.2142855,
					"velocity":91,
					"pitch":59
				},
				{
					"onsetTime":1.9285695,
					"deltaTime":0.2142855,
					"length":0.2142855,
					"velocity":96,
					"pitch":59
				},
				{
					"onsetTime":2.142855,
					"deltaTime":0.2142855,
					"length":0.2142855,
					"velocity":100,
					"pitch":60
				},
				{
					"onsetTime":2.3571405,
					"deltaTime":0.2142855,
					"length":0.2142855,
					"velocity":104,
					"pitch":60
				},
				{
					"onsetTime":2.571426,
					"deltaTime":0.2142855,
					"length":0.2142855,
					"velocity":102,
					"pitch":59
				},
				{
					"onsetTime":2.7857115,
					"deltaTime":0.2142855,
					"length":0.2142855,
					"velocity":97,
					"pitch":59
				},
				{
					"onsetTime":2.999997,
					"deltaTime":0.2142855,
					"length":0.10714275,
					"velocity":93,
					"pitch":60
				},
				{
					"onsetTime":3.10713975,
					"deltaTime":0.10714275,
					"length":0.10714275,
					"velocity":91,
					"pitch":60
				},
				{
					"onsetTime":3.2142825,
					"deltaTime":0.10714275,
					"length":0.10714275,
					"velocity":89,
					"pitch":60
				},
				{
					"onsetTime":3.32142525,
					"deltaTime":0.10714275,
					"length":0.10714275,
					"velocity":87,
					"pitch":60
				},
				{
					"onsetTime":3.428568,
					"deltaTime":0.10714275,
					"length":0.2142855,
					"velocity":89,
					"pitch":58
				},
				{
					"onsetTime":3.6428535,
					"deltaTime":0.2142855,
					"length":0.2142855,
					"velocity":94,
					"pitch":59
				},
				{
					"onsetTime":3.857139,
					"deltaTime":0.2142855,
					"length":0.2142855,
					"velocity":98,
					"pitch":60
				},
				{
					"onsetTime":4.0714245,
					"deltaTime":0.2142855,
					"length":0.2142855,
					"velocity":102,
					"pitch":60
				},
				{
					"onsetTime":4.28571,
					"deltaTime":0.2142855,
					"length":0.2142855,
					"velocity":104,
					"pitch":59
				},
				{
					"onsetTime":4.4999955,
					"deltaTime":0.2142855,
					"length":0.2142855,
					"velocity":99,
					"pitch":59
				},
				{
					"onsetTime":4.714281,
					"deltaTime":0.2142855,
					"length":0.2142855,
					"velocity":95,
					"pitch":60
				},
				{
					"onsetTime":4.9285665,
					"deltaTime":0.2142855,
					"length":0.2142855,
					"velocity":91,
					"pitch":60
				},
				{
					"onsetTime":5.142852,
					"deltaTime":0.2142855,
					"length":0.2142855,
					"velocity":87,
					"pitch":59
				},
				{
					"onsetTime":5.3571375,
					"deltaTime":0.2142855,
					"length":0.2142855,
					"velocity":92,
					"pitch":59
				},
				{
					"onsetTime":5.571423,
					"deltaTime":0.2142855,
					"length":0.2142855,
					"velocity":96,
					"pitch":60
				},
				{
					"onsetTime":5.7857085,
					"deltaTime":0.2142855,
					"length":0.2142855,
					"velocity":100,
					"pitch":60
				},
				{
					"onsetTime":5.999994,
					"deltaTime":0.2142855,
					"length":0.10714275,
					"velocity":105,
					"pitch":59
				},
				{
					"onsetTime":6.10713675,
					"deltaTime":0.10714275,
					"length":0.10714275,
					"velocity":103,
					"pitch":59
				},
				{
					"onsetTime":6.2142795,
					"deltaTime":0.10714275,
					"length":0.10714275,
					"velocity":101,
					"pitch":59
				},
				{
					"onsetTime":6.32142225,
					"deltaTime":0.10714275,
					"length":0.10714275,
					"velocity":99,
					"pitch":59
				},
				{
					"onsetTime":6.428565,
					"deltaTime":0.10714275,
					"length":0.10714275,
					"velocity":97,
					"pitch":60
				},
				{
					"onsetTime":6.53570775,
					"deltaTime":0.10714275,
					"length":0.10714275,
					"velocity":95,
					"pitch":60
				},
				{
					"onsetTime":6.6428505,
					"deltaTime":0.10714275,
					"length":0.10714275,
					"velocity":93,
					"pitch":60
				},
				{
					"onsetTime":6.74999325,
					"deltaTime":0.10714275,
					"length":0.10714275,
					"velocity":91,
					"pitch":60
				},
				{
					"onsetTime":6.857136,
					"deltaTime":0.10714275,
					"length":0.2142855,
					"velocity":88,
					"pitch":58
				},
				{
					"onsetTime":7.0714215,
					"deltaTime":0.2142855,
					"length":0.2142855,
					"velocity":90,
					"pitch":59
				},
				{
					"onsetTime":7.285707,
					"deltaTime":0.2142855,
					"length":0.2142855,
					"velocity":94,
					"pitch":60
				},
				{
					"onsetTime":7.4999925,
					"deltaTime":0.2142855,
					"length":0.2142855,
					"velocity":98,
					"pitch":60
				},
				{
					"onsetTime":7.714278,
					"deltaTime":0.2142855,
					"length":0.2142855,
					"velocity":103,
					"pitch":59
				},
				{
					"onsetTime":7.9285635,
					"deltaTime":0.2142855,
					"length":0.2142855,
					"velocity":103,
					"pitch":59
				},
				{
					"onsetTime":8.142849,
					"deltaTime":0.2142855,
					"length":0.2142855,
					"velocity":99,
					"pitch":60
				},
				{
					"onsetTime":8.3571345,
					"deltaTime":0.2142855,
					"length":0.2142855,
					"velocity":95,
					"pitch":60
				},
				{
					"onsetTime":8.57142,
					"deltaTime":0.2142855,
					"length":0.2142855,
					"velocity":90,
					"pitch":59
				},
				{
					"onsetTime":8.7857055,
					"deltaTime":0.2142855,
					"length":0.2142855,
					"velocity":88,
					"pitch":59
				},
				{
					"onsetTime":8.999991,
					"deltaTime":0.2142855,
					"length":0.2142855,
					"velocity":92,
					"pitch":60
				},
				{
					"onsetTime":9.2142765,
					"deltaTime":0.2142855,
					"length":0.2142855,
					"velocity":96,
					"pitch":60
				},
				{
					"onsetTime":9.428562,
					"deltaTime":0.2142855,
					"length":0.2142855,
					"velocity":101,
					"pitch":59
				},
				{
					"onsetTime":9.6428475,
					"deltaTime":0.2142855,
					"length":0.2142855,
					"velocity":105,
					"pitch":59
				},
				{
					"onsetTime":9.857133,
					"deltaTime":0.2142855,
					"length":0.10714275,
					"velocity":101,
					"pitch":60
				},
				{
					"onsetTime":9.96427575,
					"deltaTime":0.10714275,
					"length":0.10714275,
					"velocity":99,
					"pitch":60
				},
				{
					"onsetTime":10.0714185,
					"deltaTime":0.10714275,
					"length":0.10714275,
					"velocity":96,
					"pitch":60
				},
				{
					"onsetTime":10.17856125,
					"deltaTime":0.10714275,
					"length":0.10714275,
					"velocity":94,
					"pitch":60
				},
				{
					"onsetTime":10.285704,
					"deltaTime":0.10714275,
					"length":0.2142855,
					"velocity":92,
					"pitch":58
				},
				{
					"onsetTime":10.4999895,
					"deltaTime":0.2142855,
					"length":0.2142855,
					"velocity":88,
					"pitch":59
				},
				{
					"onsetTime":10.714275,
					"deltaTime":0.2142855,
					"length":0.2142855,
					"velocity":90,
					"pitch":60
				},
				{
					"onsetTime":10.9285605,
					"deltaTime":0.2142855,
					"length":0.2142855,
					"velocity":95,
					"pitch":60
				},
				{
					"onsetTime":11.142846,
					"deltaTime":0.2142855,
					"length":0.2142855,
					"velocity":99,
					"pitch":59
				},
				{
					"onsetTime":11.3571315,
					"deltaTime":0.2142855,
					"length":0.2142855,
					"velocity":103,
					"pitch":59
				},
				{
					"onsetTime":11.571417,
					"deltaTime":0.2142855,
					"length":0.2142855,
					"velocity":103,
					"pitch":60
				},
				{
					"onsetTime":11.7857025,
					"deltaTime":0.2142855,
					"length":0.2142855,
					"velocity":98,
					"pitch":60
				},
				{
					"onsetTime":11.999988,
					"deltaTime":0.2142855,
					"length":0.2142855,
					"velocity":94,
					"pitch":59
				},
				{
					"onsetTime":12.2142735,
					"deltaTime":0.2142855,
					"length":0.2142855,
					"velocity":90,
					"pitch":59
				},
				{
					"onsetTime":12.428559,
					"deltaTime":0.2142855,
					"length":0.2142855,
					"velocity":88,
					"pitch":60
				},
				{
					"onsetTime":12.6428445,
					"deltaTime":0.2142855,
					"length":0.2142855,
					"velocity":93,
					"pitch":60
				},
				{
					"onsetTime":12.85713,
					"deltaTime":0.2142855,
					"length":0.10714275,
					"velocity":97,
					"pitch":59
				},
				{
					"onsetTime":12.96427275,
					"deltaTime":0.10714275,
					"length":0.10714275,
					"velocity":99,
					"pitch":59
				},
				{
					"onsetTime":13.0714155,
					"deltaTime":0.10714275,
					"length":0.10714275,
					"velocity":101,
					"pitch":59
				},
				{
					"onsetTime":13.17855825,
					"deltaTime":0.10714275,
					"length":0.10714275,
					"velocity":103,
					"pitch":59
				},
				{
					"onsetTime":13.285701,
					"deltaTime":0.10714275,
					"length":0.10714275,
					"velocity":105,
					"pitch":60
				},
				{
					"onsetTime":13.39284375,
					"deltaTime":0.10714275,
					"length":0.10714275,
					"velocity":102,
					"pitch":60
				},
				{
					"onsetTime":13.4999865,
					"deltaTime":0.10714275,
					"length":0.10714275,
					"velocity":100,
					"pitch":60
				},
				{
					"onsetTime":13.60712925,
					"deltaTime":0.10714275,
					"length":0.10714275,
					"velocity":98,
					"pitch":60
				}
			]
		},
		{
			"fileName":"CUYO_midi_CUYO_midi_biotracking_rave_melody_138_Cmaj",
			"OnsetNumber":108,
			"NoteTab":[
				{
					"onsetTime":0,
					"deltaTime":0,
					"length":0.10869575,
					"velocity":100,
					"pitch":76
				},
				{
					"onsetTime":0.32608725,
					"deltaTime":0.32608725,
					"length":0.10869575,
					"velocity":100,
					"pitch":76
				},
				{
					"onsetTime":0.6521745,
					"deltaTime":0.32608725,
					"length":0.10869575,
					"velocity":100,
					"pitch":76
				},
				{
					"onsetTime":0.97826175,
					"deltaTime":0.32608725,
					"length":0.10869575,
					"velocity":100,
					"pitch":76
				},
				{
					"onsetTime":1.313406979,
					"deltaTime":0.3351452292,
					"length":0.0271739375,
					"velocity":83,
					"pitch":76
				},
				{
					"onsetTime":1.5217405,
					"deltaTime":0.2083335208,
					"length":0.054347875,
					"velocity":100,
					"pitch":79
				},
				{
					"onsetTime":1.739132,
					"deltaTime":0.2173915,
					"length":0.10869575,
					"velocity":84,
					"pitch":76
				},
				{
					"onsetTime":2.06521925,
					"deltaTime":0.32608725,
					"length":0.10869575,
					"velocity":87,
					"pitch":76
				},
				{
					"onsetTime":2.3913065,
					"deltaTime":0.32608725,
					"length":0.10869575,
					"velocity":95,
					"pitch":76
				},
				{
					"onsetTime":2.71739375,
					"deltaTime":0.32608725,
					"length":0.10869575,
					"velocity":89,
					"pitch":76
				},
				{
					"onsetTime":3.043481,
					"deltaTime":0.32608725,
					"length":0.10869575,
					"velocity":100,
					"pitch":83
				},
				{
					"onsetTime":3.2608725,
					"deltaTime":0.2173915,
					"length":0.054347875,
					"velocity":100,
					"pitch":77
				},
				{
					"onsetTime":3.478264,
					"deltaTime":0.2173915,
					"length":0.10869575,
					"velocity":78,
					"pitch":72
				},
				{
					"onsetTime":3.80435125,
					"deltaTime":0.32608725,
					"length":0.10869575,
					"velocity":66,
					"pitch":72
				},
				{
					"onsetTime":4.1304385,
					"deltaTime":0.32608725,
					"length":0.10869575,
					"velocity":73,
					"pitch":72
				},
				{
					"onsetTime":4.45652575,
					"deltaTime":0.32608725,
					"length":0.10869575,
					"velocity":67,
					"pitch":72
				},
				{
					"onsetTime":4.782613,
					"deltaTime":0.32608725,
					"length":0.10869575,
					"velocity":100,
					"pitch":72
				},
				{
					"onsetTime":5.0000045,
					"deltaTime":0.2173915,
					"length":0.054347875,
					"velocity":100,
					"pitch":72
				},
				{
					"onsetTime":5.217396,
					"deltaTime":0.2173915,
					"length":0.10869575,
					"velocity":100,
					"pitch":72
				},
				{
					"onsetTime":5.54348325,
					"deltaTime":0.32608725,
					"length":0.10869575,
					"velocity":100,
					"pitch":72
				},
				{
					"onsetTime":5.878628479,
					"deltaTime":0.3351452292,
					"length":0.10869575,
					"velocity":79,
					"pitch":72
				},
				{
					"onsetTime":6.19565775,
					"deltaTime":0.3170292708,
					"length":0.054347875,
					"velocity":80,
					"pitch":72
				},
				{
					"onsetTime":6.521745,
					"deltaTime":0.32608725,
					"length":0.054347875,
					"velocity":80,
					"pitch":72
				},
				{
					"onsetTime":6.7391365,
					"deltaTime":0.2173915,
					"length":0.054347875,
					"velocity":100,
					"pitch":71
				},
				{
					"onsetTime":6.956528,
					"deltaTime":0.2173915,
					"length":0.10869575,
					"velocity":100,
					"pitch":71
				},
				{
					"onsetTime":7.28261525,
					"deltaTime":0.32608725,
					"length":0.10869575,
					"velocity":100,
					"pitch":64
				},
				{
					"onsetTime":7.28261525,
					"deltaTime":0,
					"length":0.10869575,
					"velocity":100,
					"pitch":69
				},
				{
					"onsetTime":7.93478975,
					"deltaTime":0.6521745,
					"length":0.10869575,
					"velocity":100,
					"pitch":64
				},
				{
					"onsetTime":8.260877,
					"deltaTime":0.32608725,
					"length":0.10869575,
					"velocity":83,
					"pitch":64
				},
				{
					"onsetTime":8.69566,
					"deltaTime":0.434783,
					"length":0.10869575,
					"velocity":100,
					"pitch":64
				},
				{
					"onsetTime":9.02174725,
					"deltaTime":0.32608725,
					"length":0.10869575,
					"velocity":100,
					"pitch":64
				},
				{
					"onsetTime":9.3478345,
					"deltaTime":0.32608725,
					"length":0.10869575,
					"velocity":100,
					"pitch":64
				},
				{
					"onsetTime":9.565226,
					"deltaTime":0.2173915,
					"length":0.10869575,
					"velocity":101,
					"pitch":60
				},
				{
					"onsetTime":9.7826175,
					"deltaTime":0.2173915,
					"length":0.10869575,
					"velocity":101,
					"pitch":76
				},
				{
					"onsetTime":10.000009,
					"deltaTime":0.2173915,
					"length":0.054347875,
					"velocity":100,
					"pitch":67
				},
				{
					"onsetTime":10.2174005,
					"deltaTime":0.2173915,
					"length":0.163043625,
					"velocity":100,
					"pitch":71
				},
				{
					"onsetTime":10.434792,
					"deltaTime":0.2173915,
					"length":0.10869575,
					"velocity":100,
					"pitch":71
				},
				{
					"onsetTime":10.76087925,
					"deltaTime":0.32608725,
					"length":0.10869575,
					"velocity":100,
					"pitch":64
				},
				{
					"onsetTime":10.76087925,
					"deltaTime":0,
					"length":0.10869575,
					"velocity":100,
					"pitch":69
				},
				{
					"onsetTime":10.97827075,
					"deltaTime":0.2173915,
					"length":0.04981888542,
					"velocity":100,
					"pitch":72
				},
				{
					"onsetTime":11.0869665,
					"deltaTime":0.10869575,
					"length":0.10869575,
					"velocity":100,
					"pitch":71
				},
				{
					"onsetTime":11.41305375,
					"deltaTime":0.32608725,
					"length":0.10869575,
					"velocity":100,
					"pitch":69
				},
				{
					"onsetTime":11.739141,
					"deltaTime":0.32608725,
					"length":0.10869575,
					"velocity":100,
					"pitch":69
				},
				{
					"onsetTime":11.9565325,
					"deltaTime":0.2173915,
					"length":0.10869575,
					"velocity":100,
					"pitch":76
				},
				{
					"onsetTime":12.173924,
					"deltaTime":0.2173915,
					"length":0.10869575,
					"velocity":100,
					"pitch":67
				},
				{
					"onsetTime":12.50001125,
					"deltaTime":0.32608725,
					"length":0.10869575,
					"velocity":100,
					"pitch":67
				},
				{
					"onsetTime":12.8260985,
					"deltaTime":0.32608725,
					"length":0.10869575,
					"velocity":100,
					"pitch":64
				},
				{
					"onsetTime":13.04349,
					"deltaTime":0.2173915,
					"length":0.597826625,
					"velocity":100,
					"pitch":69
				},
				{
					"onsetTime":13.2608815,
					"deltaTime":0.2173915,
					"length":0.10869575,
					"velocity":101,
					"pitch":79
				},
				{
					"onsetTime":13.478273,
					"deltaTime":0.2173915,
					"length":0.163043625,
					"velocity":100,
					"pitch":76
				},
				{
					"onsetTime":13.6956645,
					"deltaTime":0.2173915,
					"length":0.163043625,
					"velocity":100,
					"pitch":71
				},
				{
					"onsetTime":13.913056,
					"deltaTime":0.2173915,
					"length":0.10869575,
					"velocity":100,
					"pitch":71
				},
				{
					"onsetTime":14.23914325,
					"deltaTime":0.32608725,
					"length":0.10869575,
					"velocity":100,
					"pitch":69
				},
				{
					"onsetTime":14.45653475,
					"deltaTime":0.2173915,
					"length":0.04981888542,
					"velocity":100,
					"pitch":72
				},
				{
					"onsetTime":14.5652305,
					"deltaTime":0.10869575,
					"length":0.10869575,
					"velocity":100,
					"pitch":71
				},
				{
					"onsetTime":14.89131775,
					"deltaTime":0.32608725,
					"length":0.10869575,
					"velocity":100,
					"pitch":69
				},
				{
					"onsetTime":15.217405,
					"deltaTime":0.32608725,
					"length":0.10869575,
					"velocity":100,
					"pitch":69
				},
				{
					"onsetTime":15.4347965,
					"deltaTime":0.2173915,
					"length":0.10869575,
					"velocity":100,
					"pitch":76
				},
				{
					"onsetTime":15.652188,
					"deltaTime":0.2173915,
					"length":0.10869575,
					"velocity":100,
					"pitch":67
				},
				{
					"onsetTime":15.97827525,
					"deltaTime":0.32608725,
					"length":0.10869575,
					"velocity":100,
					"pitch":67
				},
				{
					"onsetTime":16.3043625,
					"deltaTime":0.32608725,
					"length":0.10869575,
					"velocity":100,
					"pitch":64
				},
				{
					"onsetTime":16.521754,
					"deltaTime":0.2173915,
					"length":0.10869575,
					"velocity":101,
					"pitch":60
				},
				{
					"onsetTime":16.7391455,
					"deltaTime":0.2173915,
					"length":0.10869575,
					"velocity":101,
					"pitch":76
				},
				{
					"onsetTime":16.956537,
					"deltaTime":0.2173915,
					"length":0.163043625,
					"velocity":100,
					"pitch":76
				},
				{
					"onsetTime":17.1739285,
					"deltaTime":0.2173915,
					"length":0.163043625,
					"velocity":100,
					"pitch":71
				},
				{
					"onsetTime":17.39132,
					"deltaTime":0.2173915,
					"length":0.10869575,
					"velocity":100,
					"pitch":71
				},
				{
					"onsetTime":17.71740725,
					"deltaTime":0.32608725,
					"length":0.10869575,
					"velocity":100,
					"pitch":69
				},
				{
					"onsetTime":17.93479875,
					"deltaTime":0.2173915,
					"length":0.04981888542,
					"velocity":100,
					"pitch":72
				},
				{
					"onsetTime":18.0434945,
					"deltaTime":0.10869575,
					"length":0.10869575,
					"velocity":100,
					"pitch":74
				},
				{
					"onsetTime":18.36958175,
					"deltaTime":0.32608725,
					"length":0.10869575,
					"velocity":100,
					"pitch":76
				},
				{
					"onsetTime":18.695669,
					"deltaTime":0.32608725,
					"length":0.10869575,
					"velocity":100,
					"pitch":71
				},
				{
					"onsetTime":18.9130605,
					"deltaTime":0.2173915,
					"length":0.10869575,
					"velocity":100,
					"pitch":76
				},
				{
					"onsetTime":19.130452,
					"deltaTime":0.2173915,
					"length":0.10869575,
					"velocity":100,
					"pitch":67
				},
				{
					"onsetTime":19.45653925,
					"deltaTime":0.32608725,
					"length":0.10869575,
					"velocity":100,
					"pitch":67
				},
				{
					"onsetTime":19.7826265,
					"deltaTime":0.32608725,
					"length":0.10869575,
					"velocity":101,
					"pitch":62
				},
				{
					"onsetTime":20.000018,
					"deltaTime":0.2173915,
					"length":0.597826625,
					"velocity":100,
					"pitch":74
				},
				{
					"onsetTime":20.2174095,
					"deltaTime":0.2173915,
					"length":0.10869575,
					"velocity":101,
					"pitch":79
				},
				{
					"onsetTime":20.434801,
					"deltaTime":0.2173915,
					"length":0.163043625,
					"velocity":100,
					"pitch":76
				},
				{
					"onsetTime":20.6521925,
					"deltaTime":0.2173915,
					"length":0.163043625,
					"velocity":100,
					"pitch":71
				},
				{
					"onsetTime":20.869584,
					"deltaTime":0.2173915,
					"length":0.10869575,
					"velocity":80,
					"pitch":71
				},
				{
					"onsetTime":21.19567125,
					"deltaTime":0.32608725,
					"length":0.10869575,
					"velocity":100,
					"pitch":69
				},
				{
					"onsetTime":21.41306275,
					"deltaTime":0.2173915,
					"length":0.04981888542,
					"velocity":80,
					"pitch":72
				},
				{
					"onsetTime":21.5217585,
					"deltaTime":0.10869575,
					"length":0.32608725,
					"velocity":88,
					"pitch":71
				},
				{
					"onsetTime":21.84784575,
					"deltaTime":0.32608725,
					"length":0.10869575,
					"velocity":100,
					"pitch":69
				},
				{
					"onsetTime":22.173933,
					"deltaTime":0.32608725,
					"length":0.10869575,
					"velocity":100,
					"pitch":69
				},
				{
					"onsetTime":22.3913245,
					"deltaTime":0.2173915,
					"length":0.10869575,
					"velocity":100,
					"pitch":76
				},
				{
					"onsetTime":22.608716,
					"deltaTime":0.2173915,
					"length":0.10869575,
					"velocity":100,
					"pitch":67
				},
				{
					"onsetTime":22.93480325,
					"deltaTime":0.32608725,
					"length":0.10869575,
					"velocity":100,
					"pitch":67
				},
				{
					"onsetTime":23.2608905,
					"deltaTime":0.32608725,
					"length":0.10869575,
					"velocity":100,
					"pitch":64
				},
				{
					"onsetTime":23.48733998,
					"deltaTime":0.2264494792,
					"length":0.8605080208,
					"velocity":101,
					"pitch":48
				},
				{
					"onsetTime":23.6956735,
					"deltaTime":0.2083335208,
					"length":0.10869575,
					"velocity":101,
					"pitch":76
				},
				{
					"onsetTime":23.913065,
					"deltaTime":0.2173915,
					"length":0.054347875,
					"velocity":100,
					"pitch":67
				},
				{
					"onsetTime":23.913065,
					"deltaTime":0,
					"length":0.163043625,
					"velocity":100,
					"pitch":76
				},
				{
					"onsetTime":24.1304565,
					"deltaTime":0.2173915,
					"length":0.163043625,
					"velocity":100,
					"pitch":71
				},
				{
					"onsetTime":24.347848,
					"deltaTime":0.2173915,
					"length":0.2173915,
					"velocity":100,
					"pitch":71
				},
				{
					"onsetTime":24.67393525,
					"deltaTime":0.32608725,
					"length":0.10869575,
					"velocity":88,
					"pitch":69
				},
				{
					"onsetTime":24.89132675,
					"deltaTime":0.2173915,
					"length":0.054347875,
					"velocity":80,
					"pitch":76
				},
				{
					"onsetTime":25.0000225,
					"deltaTime":0.10869575,
					"length":0.271739375,
					"velocity":78,
					"pitch":71
				},
				{
					"onsetTime":25.32610975,
					"deltaTime":0.32608725,
					"length":0.10869575,
					"velocity":77,
					"pitch":76
				},
				{
					"onsetTime":25.652197,
					"deltaTime":0.32608725,
					"length":0.32608725,
					"velocity":82,
					"pitch":76
				},
				{
					"onsetTime":25.8695885,
					"deltaTime":0.2173915,
					"length":0.10869575,
					"velocity":100,
					"pitch":69
				},
				{
					"onsetTime":26.08698,
					"deltaTime":0.2173915,
					"length":0.815218125,
					"velocity":101,
					"pitch":59
				},
				{
					"onsetTime":26.41306725,
					"deltaTime":0.32608725,
					"length":0.10869575,
					"velocity":100,
					"pitch":67
				},
				{
					"onsetTime":26.7391545,
					"deltaTime":0.32608725,
					"length":0.10869575,
					"velocity":100,
					"pitch":64
				},
				{
					"onsetTime":26.956546,
					"deltaTime":0.2173915,
					"length":0.706522375,
					"velocity":91,
					"pitch":55
				},
				{
					"onsetTime":27.1739375,
					"deltaTime":0.2173915,
					"length":0.10869575,
					"velocity":101,
					"pitch":79
				},
				{
					"onsetTime":27.391329,
					"deltaTime":0.2173915,
					"length":0.434783,
					"velocity":68,
					"pitch":47
				},
				{
					"onsetTime":27.6087205,
					"deltaTime":0.2173915,
					"length":0.163043625,
					"velocity":100,
					"pitch":71
				}
			]
		},
		{
			"fileName":"CZ_midi_CZ_midi_sick_melody_blue_monday_140_Gm",
			"OnsetNumber":64,
			"NoteTab":[
				{
					"onsetTime":0,
					"deltaTime":0,
					"length":2.173915,
					"velocity":100,
					"pitch":70
				},
				{
					"onsetTime":0.2173915,
					"deltaTime":0.2173915,
					"length":0.07246383333,
					"velocity":100,
					"pitch":77
				},
				{
					"onsetTime":0.434783,
					"deltaTime":0.2173915,
					"length":0.09963777083,
					"velocity":100,
					"pitch":82
				},
				{
					"onsetTime":0.6521745,
					"deltaTime":0.2173915,
					"length":0.09510878125,
					"velocity":100,
					"pitch":75
				},
				{
					"onsetTime":0.869566,
					"deltaTime":0.2173915,
					"length":0.06793484375,
					"velocity":100,
					"pitch":77
				},
				{
					"onsetTime":1.0869575,
					"deltaTime":0.2173915,
					"length":0.1268117083,
					"velocity":100,
					"pitch":82
				},
				{
					"onsetTime":1.304349,
					"deltaTime":0.2173915,
					"length":0.1132247396,
					"velocity":100,
					"pitch":74
				},
				{
					"onsetTime":1.5217405,
					"deltaTime":0.2173915,
					"length":0.09963777083,
					"velocity":100,
					"pitch":79
				},
				{
					"onsetTime":1.739132,
					"deltaTime":0.2173915,
					"length":2.173915,
					"velocity":100,
					"pitch":67
				},
				{
					"onsetTime":1.9565235,
					"deltaTime":0.2173915,
					"length":0.1132247396,
					"velocity":100,
					"pitch":74
				},
				{
					"onsetTime":2.173915,
					"deltaTime":0.2173915,
					"length":0.08605080208,
					"velocity":100,
					"pitch":79
				},
				{
					"onsetTime":2.3913065,
					"deltaTime":0.2173915,
					"length":0.1132247396,
					"velocity":100,
					"pitch":82
				},
				{
					"onsetTime":2.608698,
					"deltaTime":0.2173915,
					"length":0.1041667604,
					"velocity":100,
					"pitch":74
				},
				{
					"onsetTime":2.8260895,
					"deltaTime":0.2173915,
					"length":0.07699282292,
					"velocity":100,
					"pitch":79
				},
				{
					"onsetTime":3.043481,
					"deltaTime":0.2173915,
					"length":0.1132247396,
					"velocity":100,
					"pitch":82
				},
				{
					"onsetTime":3.2608725,
					"deltaTime":0.2173915,
					"length":0.08605080208,
					"velocity":100,
					"pitch":79
				},
				{
					"onsetTime":3.478264,
					"deltaTime":0.2173915,
					"length":2.173915,
					"velocity":100,
					"pitch":70
				},
				{
					"onsetTime":3.6956555,
					"deltaTime":0.2173915,
					"length":0.07246383333,
					"velocity":100,
					"pitch":77
				},
				{
					"onsetTime":3.913047,
					"deltaTime":0.2173915,
					"length":0.09963777083,
					"velocity":100,
					"pitch":82
				},
				{
					"onsetTime":4.1304385,
					"deltaTime":0.2173915,
					"length":0.09510878125,
					"velocity":100,
					"pitch":75
				},
				{
					"onsetTime":4.34783,
					"deltaTime":0.2173915,
					"length":0.06793484375,
					"velocity":100,
					"pitch":77
				},
				{
					"onsetTime":4.5652215,
					"deltaTime":0.2173915,
					"length":0.1268117083,
					"velocity":100,
					"pitch":82
				},
				{
					"onsetTime":4.782613,
					"deltaTime":0.2173915,
					"length":0.1132247396,
					"velocity":100,
					"pitch":74
				},
				{
					"onsetTime":5.0000045,
					"deltaTime":0.2173915,
					"length":0.09963777083,
					"velocity":100,
					"pitch":79
				},
				{
					"onsetTime":5.217396,
					"deltaTime":0.2173915,
					"length":1.9565235,
					"velocity":100,
					"pitch":67
				},
				{
					"onsetTime":5.4347875,
					"deltaTime":0.2173915,
					"length":0.1132247396,
					"velocity":100,
					"pitch":74
				},
				{
					"onsetTime":5.652179,
					"deltaTime":0.2173915,
					"length":0.08605080208,
					"velocity":100,
					"pitch":79
				},
				{
					"onsetTime":5.8695705,
					"deltaTime":0.2173915,
					"length":0.1132247396,
					"velocity":100,
					"pitch":82
				},
				{
					"onsetTime":6.086962,
					"deltaTime":0.2173915,
					"length":0.1041667604,
					"velocity":100,
					"pitch":74
				},
				{
					"onsetTime":6.3043535,
					"deltaTime":0.2173915,
					"length":0.07699282292,
					"velocity":100,
					"pitch":79
				},
				{
					"onsetTime":6.521745,
					"deltaTime":0.2173915,
					"length":0.1132247396,
					"velocity":100,
					"pitch":82
				},
				{
					"onsetTime":6.7391365,
					"deltaTime":0.2173915,
					"length":0.08605080208,
					"velocity":100,
					"pitch":79
				},
				{
					"onsetTime":6.956528,
					"deltaTime":0.2173915,
					"length":2.173915,
					"velocity":100,
					"pitch":70
				},
				{
					"onsetTime":7.1739195,
					"deltaTime":0.2173915,
					"length":0.07246383333,
					"velocity":100,
					"pitch":77
				},
				{
					"onsetTime":7.391311,
					"deltaTime":0.2173915,
					"length":0.09963777083,
					"velocity":100,
					"pitch":82
				},
				{
					"onsetTime":7.6087025,
					"deltaTime":0.2173915,
					"length":0.09510878125,
					"velocity":100,
					"pitch":75
				},
				{
					"onsetTime":7.826094,
					"deltaTime":0.2173915,
					"length":0.06793484375,
					"velocity":100,
					"pitch":77
				},
				{
					"onsetTime":8.0434855,
					"deltaTime":0.2173915,
					"length":0.1268117083,
					"velocity":100,
					"pitch":82
				},
				{
					"onsetTime":8.260877,
					"deltaTime":0.2173915,
					"length":0.1132247396,
					"velocity":100,
					"pitch":74
				},
				{
					"onsetTime":8.4782685,
					"deltaTime":0.2173915,
					"length":0.09963777083,
					"velocity":100,
					"pitch":79
				},
				{
					"onsetTime":8.69566,
					"deltaTime":0.2173915,
					"length":2.173915,
					"velocity":100,
					"pitch":67
				},
				{
					"onsetTime":8.9130515,
					"deltaTime":0.2173915,
					"length":0.1132247396,
					"velocity":100,
					"pitch":74
				},
				{
					"onsetTime":9.130443,
					"deltaTime":0.2173915,
					"length":0.08605080208,
					"velocity":100,
					"pitch":79
				},
				{
					"onsetTime":9.3478345,
					"deltaTime":0.2173915,
					"length":0.1132247396,
					"velocity":100,
					"pitch":82
				},
				{
					"onsetTime":9.565226,
					"deltaTime":0.2173915,
					"length":0.1041667604,
					"velocity":100,
					"pitch":74
				},
				{
					"onsetTime":9.7826175,
					"deltaTime":0.2173915,
					"length":0.07699282292,
					"velocity":100,
					"pitch":79
				},
				{
					"onsetTime":10.000009,
					"deltaTime":0.2173915,
					"length":0.1132247396,
					"velocity":100,
					"pitch":82
				},
				{
					"onsetTime":10.2174005,
					"deltaTime":0.2173915,
					"length":0.08605080208,
					"velocity":100,
					"pitch":79
				},
				{
					"onsetTime":10.434792,
					"deltaTime":0.2173915,
					"length":2.173915,
					"velocity":100,
					"pitch":70
				},
				{
					"onsetTime":10.6521835,
					"deltaTime":0.2173915,
					"length":0.07246383333,
					"velocity":100,
					"pitch":77
				},
				{
					"onsetTime":10.869575,
					"deltaTime":0.2173915,
					"length":0.09963777083,
					"velocity":100,
					"pitch":82
				},
				{
					"onsetTime":11.0869665,
					"deltaTime":0.2173915,
					"length":0.09510878125,
					"velocity":100,
					"pitch":75
				},
				{
					"onsetTime":11.304358,
					"deltaTime":0.2173915,
					"length":0.06793484375,
					"velocity":100,
					"pitch":77
				},
				{
					"onsetTime":11.5217495,
					"deltaTime":0.2173915,
					"length":0.1268117083,
					"velocity":100,
					"pitch":82
				},
				{
					"onsetTime":11.739141,
					"deltaTime":0.2173915,
					"length":0.1132247396,
					"velocity":100,
					"pitch":74
				},
				{
					"onsetTime":11.9565325,
					"deltaTime":0.2173915,
					"length":0.09963777083,
					"velocity":100,
					"pitch":79
				},
				{
					"onsetTime":12.173924,
					"deltaTime":0.2173915,
					"length":1.739132,
					"velocity":100,
					"pitch":67
				},
				{
					"onsetTime":12.3913155,
					"deltaTime":0.2173915,
					"length":0.1132247396,
					"velocity":100,
					"pitch":74
				},
				{
					"onsetTime":12.608707,
					"deltaTime":0.2173915,
					"length":0.08605080208,
					"velocity":100,
					"pitch":79
				},
				{
					"onsetTime":12.8260985,
					"deltaTime":0.2173915,
					"length":0.1132247396,
					"velocity":100,
					"pitch":82
				},
				{
					"onsetTime":13.04349,
					"deltaTime":0.2173915,
					"length":0.1041667604,
					"velocity":100,
					"pitch":74
				},
				{
					"onsetTime":13.2608815,
					"deltaTime":0.2173915,
					"length":0.07699282292,
					"velocity":100,
					"pitch":79
				},
				{
					"onsetTime":13.478273,
					"deltaTime":0.2173915,
					"length":0.1132247396,
					"velocity":100,
					"pitch":82
				},
				{
					"onsetTime":13.6956645,
					"deltaTime":0.2173915,
					"length":0.08605080208,
					"velocity":100,
					"pitch":79
				}
			]
		},
		{
			"fileName":"DJ_TAYE_midi_DJ_TAYE_midi_crown_chakra_120_F#m",
			"OnsetNumber":0,
			"NoteTab":[]
		},
		{
			"fileName":"JAFUNK_midi_bass_loop_chunkyfunky_02_105",
			"OnsetNumber":13,
			"NoteTab":[
				{
					"onsetTime":0,
					"deltaTime":0,
					"length":0.3392859687,
					"velocity":113,
					"pitch":50
				},
				{
					"onsetTime":0.4642860625,
					"deltaTime":0.4642860625,
					"length":0.05952385417,
					"velocity":114,
					"pitch":50
				},
				{
					"onsetTime":1.035715063,
					"deltaTime":0.571429,
					"length":0.09523816667,
					"velocity":114,
					"pitch":50
				},
				{
					"onsetTime":1.4285725,
					"deltaTime":0.3928574375,
					"length":0.08333339583,
					"velocity":113,
					"pitch":50
				},
				{
					"onsetTime":1.785715625,
					"deltaTime":0.357143125,
					"length":0.214285875,
					"velocity":113,
					"pitch":60
				},
				{
					"onsetTime":1.93452526,
					"deltaTime":0.1488096354,
					"length":0.3333335833,
					"velocity":113,
					"pitch":62
				},
				{
					"onsetTime":2.285716,
					"deltaTime":0.3511907396,
					"length":0.3630955104,
					"velocity":112,
					"pitch":55
				},
				{
					"onsetTime":2.750002062,
					"deltaTime":0.4642860625,
					"length":0.05952385417,
					"velocity":112,
					"pitch":55
				},
				{
					"onsetTime":3.321431062,
					"deltaTime":0.571429,
					"length":0.08333339583,
					"velocity":112,
					"pitch":55
				},
				{
					"onsetTime":3.7142885,
					"deltaTime":0.3928574375,
					"length":0.1011905521,
					"velocity":111,
					"pitch":55
				},
				{
					"onsetTime":4.000003,
					"deltaTime":0.2857145,
					"length":0.08333339583,
					"velocity":111,
					"pitch":53
				},
				{
					"onsetTime":4.261907958,
					"deltaTime":0.2619049583,
					"length":0.1964287188,
					"velocity":111,
					"pitch":53
				},
				{
					"onsetTime":4.50595576,
					"deltaTime":0.2440478021,
					"length":0.06547623958,
					"velocity":111,
					"pitch":53
				}
			]
		},
		{
			"fileName":"JAFUNK_midi_bass_loop_flapper_01_110",
			"OnsetNumber":15,
			"NoteTab":[
				{
					"onsetTime":0,
					"deltaTime":0,
					"length":0.068181875,
					"velocity":79,
					"pitch":50
				},
				{
					"onsetTime":0.13636375,
					"deltaTime":0.13636375,
					"length":0.068181875,
					"velocity":79,
					"pitch":62
				},
				{
					"onsetTime":0.40909125,
					"deltaTime":0.2727275,
					"length":0.068181875,
					"velocity":88,
					"pitch":50
				},
				{
					"onsetTime":0.545455,
					"deltaTime":0.13636375,
					"length":0.13636375,
					"velocity":78,
					"pitch":50
				},
				{
					"onsetTime":0.8181825,
					"deltaTime":0.2727275,
					"length":0.068181875,
					"velocity":93,
					"pitch":52
				},
				{
					"onsetTime":1.09091,
					"deltaTime":0.2727275,
					"length":0.068181875,
					"velocity":80,
					"pitch":52
				},
				{
					"onsetTime":1.159091875,
					"deltaTime":0.068181875,
					"length":0.2727275,
					"velocity":87,
					"pitch":53
				},
				{
					"onsetTime":1.50000125,
					"deltaTime":0.340909375,
					"length":0.068181875,
					"velocity":84,
					"pitch":52
				},
				{
					"onsetTime":2.18182,
					"deltaTime":0.68181875,
					"length":0.068181875,
					"velocity":78,
					"pitch":48
				},
				{
					"onsetTime":2.31818375,
					"deltaTime":0.13636375,
					"length":0.068181875,
					"velocity":78,
					"pitch":60
				},
				{
					"onsetTime":2.59091125,
					"deltaTime":0.2727275,
					"length":0.068181875,
					"velocity":70,
					"pitch":48
				},
				{
					"onsetTime":2.727275,
					"deltaTime":0.13636375,
					"length":0.13636375,
					"velocity":68,
					"pitch":48
				},
				{
					"onsetTime":3.0000025,
					"deltaTime":0.2727275,
					"length":0.13636375,
					"velocity":82,
					"pitch":49
				},
				{
					"onsetTime":3.27273,
					"deltaTime":0.2727275,
					"length":0.40909125,
					"velocity":72,
					"pitch":50
				},
				{
					"onsetTime":3.68182125,
					"deltaTime":0.40909125,
					"length":0.13636375,
					"velocity":76,
					"pitch":50
				}
			]
		},
		{
			"fileName":"JAFUNK_midi_bass_loop_jheez_01_110",
			"OnsetNumber":9,
			"NoteTab":[
				{
					"onsetTime":0,
					"deltaTime":0,
					"length":0.2727275,
					"velocity":80,
					"pitch":57
				},
				{
					"onsetTime":0.2727275,
					"deltaTime":0.2727275,
					"length":0.09659098958,
					"velocity":80,
					"pitch":55
				},
				{
					"onsetTime":0.545455,
					"deltaTime":0.2727275,
					"length":0.09659098958,
					"velocity":80,
					"pitch":57
				},
				{
					"onsetTime":0.8181825,
					"deltaTime":0.2727275,
					"length":0.09659098958,
					"velocity":80,
					"pitch":60
				},
				{
					"onsetTime":1.09091,
					"deltaTime":0.2727275,
					"length":0.2329547396,
					"velocity":80,
					"pitch":60
				},
				{
					"onsetTime":2.363638333,
					"deltaTime":1.272728333,
					"length":0.02272729167,
					"velocity":80,
					"pitch":62
				},
				{
					"onsetTime":2.625002187,
					"deltaTime":0.2613638542,
					"length":0.04545458333,
					"velocity":80,
					"pitch":62
				},
				{
					"onsetTime":2.727275,
					"deltaTime":0.1022728125,
					"length":0.3863639583,
					"velocity":80,
					"pitch":60
				},
				{
					"onsetTime":3.13636625,
					"deltaTime":0.40909125,
					"length":0.09659098958,
					"velocity":80,
					"pitch":62
				}
			]
		},
		{
			"fileName":"JAFUNK_midi_bass_loop_octaves_02_110",
			"OnsetNumber":7,
			"NoteTab":[
				{
					"onsetTime":0,
					"deltaTime":0,
					"length":0.40909125,
					"velocity":107,
					"pitch":67
				},
				{
					"onsetTime":0.40909125,
					"deltaTime":0.40909125,
					"length":0.068181875,
					"velocity":92,
					"pitch":82
				},
				{
					"onsetTime":0.8181825,
					"deltaTime":0.40909125,
					"length":0.2727275,
					"velocity":80,
					"pitch":65
				},
				{
					"onsetTime":1.09091,
					"deltaTime":0.2727275,
					"length":0.40909125,
					"velocity":80,
					"pitch":63
				},
				{
					"onsetTime":1.50000125,
					"deltaTime":0.40909125,
					"length":0.068181875,
					"velocity":92,
					"pitch":79
				},
				{
					"onsetTime":1.9090925,
					"deltaTime":0.40909125,
					"length":0.2727275,
					"velocity":80,
					"pitch":60
				},
				{
					"onsetTime":3.0000025,
					"deltaTime":1.09091,
					"length":0.2727275,
					"velocity":103,
					"pitch":53
				}
			]
		},
		{
			"fileName":"JAFUNK_midi_lead_loop_squash",
			"OnsetNumber":28,
			"NoteTab":[
				{
					"onsetTime":0,
					"deltaTime":0,
					"length":0.1420455729,
					"velocity":103,
					"pitch":74
				},
				{
					"onsetTime":0.2727275,
					"deltaTime":0.2727275,
					"length":0.09659098958,
					"velocity":108,
					"pitch":67
				},
				{
					"onsetTime":0.545455,
					"deltaTime":0.2727275,
					"length":0.1136364583,
					"velocity":108,
					"pitch":70
				},
				{
					"onsetTime":0.8181825,
					"deltaTime":0.2727275,
					"length":0.1136364583,
					"velocity":108,
					"pitch":67
				},
				{
					"onsetTime":0.9659098958,
					"deltaTime":0.1477273958,
					"length":0.09659098958,
					"velocity":108,
					"pitch":70
				},
				{
					"onsetTime":1.238637396,
					"deltaTime":0.2727275,
					"length":0.1250001042,
					"velocity":108,
					"pitch":67
				},
				{
					"onsetTime":1.50000125,
					"deltaTime":0.2613638542,
					"length":0.40909125,
					"velocity":100,
					"pitch":70
				},
				{
					"onsetTime":1.9090925,
					"deltaTime":0.40909125,
					"length":0.07386369792,
					"velocity":108,
					"pitch":72
				},
				{
					"onsetTime":2.18182,
					"deltaTime":0.2727275,
					"length":0.1420455729,
					"velocity":107,
					"pitch":74
				},
				{
					"onsetTime":2.4545475,
					"deltaTime":0.2727275,
					"length":0.09659098958,
					"velocity":95,
					"pitch":67
				},
				{
					"onsetTime":2.727275,
					"deltaTime":0.2727275,
					"length":0.1136364583,
					"velocity":107,
					"pitch":70
				},
				{
					"onsetTime":3.0000025,
					"deltaTime":0.2727275,
					"length":0.1136364583,
					"velocity":107,
					"pitch":67
				},
				{
					"onsetTime":3.147729896,
					"deltaTime":0.1477273958,
					"length":0.09659098958,
					"velocity":92,
					"pitch":70
				},
				{
					"onsetTime":3.414775573,
					"deltaTime":0.2670456771,
					"length":0.1477273958,
					"velocity":107,
					"pitch":72
				},
				{
					"onsetTime":3.698866719,
					"deltaTime":0.2840911458,
					"length":0.3920457813,
					"velocity":107,
					"pitch":72
				},
				{
					"onsetTime":4.0909125,
					"deltaTime":0.3920457813,
					"length":0.068181875,
					"velocity":92,
					"pitch":70
				},
				{
					"onsetTime":4.36364,
					"deltaTime":0.2727275,
					"length":0.13636375,
					"velocity":106,
					"pitch":72
				},
				{
					"onsetTime":4.6363675,
					"deltaTime":0.2727275,
					"length":0.08522734375,
					"velocity":90,
					"pitch":67
				},
				{
					"onsetTime":4.909095,
					"deltaTime":0.2727275,
					"length":0.1022728125,
					"velocity":106,
					"pitch":70
				},
				{
					"onsetTime":5.1818225,
					"deltaTime":0.2727275,
					"length":0.1022728125,
					"velocity":92,
					"pitch":67
				},
				{
					"onsetTime":5.329549896,
					"deltaTime":0.1477273958,
					"length":0.1079546354,
					"velocity":106,
					"pitch":70
				},
				{
					"onsetTime":5.602277396,
					"deltaTime":0.2727275,
					"length":0.09090916667,
					"velocity":91,
					"pitch":67
				},
				{
					"onsetTime":5.875004896,
					"deltaTime":0.2727275,
					"length":0.3863639583,
					"velocity":91,
					"pitch":70
				},
				{
					"onsetTime":6.2727325,
					"deltaTime":0.3977276042,
					"length":0.08522734375,
					"velocity":106,
					"pitch":72
				},
				{
					"onsetTime":6.54546,
					"deltaTime":0.2727275,
					"length":0.2329547396,
					"velocity":85,
					"pitch":72
				},
				{
					"onsetTime":7.090915,
					"deltaTime":0.545455,
					"length":0.2500002083,
					"velocity":95,
					"pitch":70
				},
				{
					"onsetTime":7.63637,
					"deltaTime":0.545455,
					"length":0.5284095312,
					"velocity":105,
					"pitch":70
				},
				{
					"onsetTime":8.181825,
					"deltaTime":0.545455,
					"length":0.13636375,
					"velocity":105,
					"pitch":67
				}
			]
		},
		{
			"fileName":"JAFUNK_midi_lead_loop_tuck",
			"OnsetNumber":22,
			"NoteTab":[
				{
					"onsetTime":0,
					"deltaTime":0,
					"length":0.1250001042,
					"velocity":70,
					"pitch":73
				},
				{
					"onsetTime":0.05681822917,
					"deltaTime":0.05681822917,
					"length":0.4886367708,
					"velocity":70,
					"pitch":75
				},
				{
					"onsetTime":0.545455,
					"deltaTime":0.4886367708,
					"length":0.545455,
					"velocity":70,
					"pitch":73
				},
				{
					"onsetTime":1.09091,
					"deltaTime":0.545455,
					"length":0.545455,
					"velocity":70,
					"pitch":71
				},
				{
					"onsetTime":1.636365,
					"deltaTime":0.545455,
					"length":0.2727275,
					"velocity":70,
					"pitch":68
				},
				{
					"onsetTime":1.9090925,
					"deltaTime":0.2727275,
					"length":0.545455,
					"velocity":70,
					"pitch":71
				},
				{
					"onsetTime":2.4545475,
					"deltaTime":0.545455,
					"length":0.09659098958,
					"velocity":70,
					"pitch":73
				},
				{
					"onsetTime":3.27273,
					"deltaTime":0.8181825,
					"length":0.2727275,
					"velocity":70,
					"pitch":66
				},
				{
					"onsetTime":3.551139323,
					"deltaTime":0.2784093229,
					"length":0.2613638542,
					"velocity":70,
					"pitch":68
				},
				{
					"onsetTime":3.823866823,
					"deltaTime":0.2727275,
					"length":0.2670456771,
					"velocity":70,
					"pitch":71
				},
				{
					"onsetTime":4.0909125,
					"deltaTime":0.2670456771,
					"length":0.2727275,
					"velocity":70,
					"pitch":73
				},
				{
					"onsetTime":4.36364,
					"deltaTime":0.2727275,
					"length":0.1136364583,
					"velocity":70,
					"pitch":73
				},
				{
					"onsetTime":4.409094583,
					"deltaTime":0.04545458333,
					"length":0.5000004167,
					"velocity":70,
					"pitch":75
				},
				{
					"onsetTime":4.909095,
					"deltaTime":0.5000004167,
					"length":0.2727275,
					"velocity":70,
					"pitch":76
				},
				{
					"onsetTime":5.1818225,
					"deltaTime":0.2727275,
					"length":0.1022728125,
					"velocity":70,
					"pitch":76
				},
				{
					"onsetTime":5.250004375,
					"deltaTime":0.068181875,
					"length":0.750000625,
					"velocity":70,
					"pitch":78
				},
				{
					"onsetTime":6.000005,
					"deltaTime":0.750000625,
					"length":0.2784093229,
					"velocity":70,
					"pitch":76
				},
				{
					"onsetTime":6.2727325,
					"deltaTime":0.2727275,
					"length":1.3636375,
					"velocity":70,
					"pitch":75
				},
				{
					"onsetTime":7.63637,
					"deltaTime":1.3636375,
					"length":0.2727275,
					"velocity":70,
					"pitch":66
				},
				{
					"onsetTime":7.914779323,
					"deltaTime":0.2784093229,
					"length":0.2613638542,
					"velocity":70,
					"pitch":68
				},
				{
					"onsetTime":8.187506823,
					"deltaTime":0.2727275,
					"length":0.2670456771,
					"velocity":70,
					"pitch":71
				},
				{
					"onsetTime":8.4545525,
					"deltaTime":0.2670456771,
					"length":0.2727275,
					"velocity":70,
					"pitch":73
				}
			]
		},
		{
			"fileName":"JAFUNK_midi_rhodes_loop_datfonk_110",
			"OnsetNumber":24,
			"NoteTab":[
				{
					"onsetTime":0,
					"deltaTime":0,
					"length":0.068181875,
					"velocity":84,
					"pitch":65
				},
				{
					"onsetTime":0.1704546875,
					"deltaTime":0.1704546875,
					"length":0.1022728125,
					"velocity":75,
					"pitch":65
				},
				{
					"onsetTime":0.4431821875,
					"deltaTime":0.2727275,
					"length":0.1022728125,
					"velocity":84,
					"pitch":65
				},
				{
					"onsetTime":1.09091,
					"deltaTime":0.6477278125,
					"length":0.1022728125,
					"velocity":68,
					"pitch":69
				},
				{
					"onsetTime":1.261364688,
					"deltaTime":0.1704546875,
					"length":0.1022728125,
					"velocity":89,
					"pitch":69
				},
				{
					"onsetTime":1.534092188,
					"deltaTime":0.2727275,
					"length":0.068181875,
					"velocity":93,
					"pitch":69
				},
				{
					"onsetTime":2.18182,
					"deltaTime":0.6477278125,
					"length":0.13636375,
					"velocity":91,
					"pitch":71
				},
				{
					"onsetTime":2.352274688,
					"deltaTime":0.1704546875,
					"length":0.1022728125,
					"velocity":82,
					"pitch":71
				},
				{
					"onsetTime":2.625002187,
					"deltaTime":0.2727275,
					"length":0.1022728125,
					"velocity":98,
					"pitch":71
				},
				{
					"onsetTime":3.27273,
					"deltaTime":0.6477278125,
					"length":0.1022728125,
					"velocity":95,
					"pitch":71
				},
				{
					"onsetTime":3.443184687,
					"deltaTime":0.1704546875,
					"length":0.1022728125,
					"velocity":86,
					"pitch":71
				},
				{
					"onsetTime":3.750003125,
					"deltaTime":0.3068184375,
					"length":0.068181875,
					"velocity":98,
					"pitch":71
				},
				{
					"onsetTime":4.36364,
					"deltaTime":0.613636875,
					"length":0.1022728125,
					"velocity":93,
					"pitch":76
				},
				{
					"onsetTime":4.568185625,
					"deltaTime":0.204545625,
					"length":0.1022728125,
					"velocity":82,
					"pitch":76
				},
				{
					"onsetTime":4.840913125,
					"deltaTime":0.2727275,
					"length":0.1022728125,
					"velocity":99,
					"pitch":76
				},
				{
					"onsetTime":5.45455,
					"deltaTime":0.613636875,
					"length":0.068181875,
					"velocity":76,
					"pitch":74
				},
				{
					"onsetTime":5.659095625,
					"deltaTime":0.204545625,
					"length":0.1022728125,
					"velocity":71,
					"pitch":74
				},
				{
					"onsetTime":5.931823125,
					"deltaTime":0.2727275,
					"length":0.068181875,
					"velocity":82,
					"pitch":74
				},
				{
					"onsetTime":6.54546,
					"deltaTime":0.613636875,
					"length":0.1022728125,
					"velocity":93,
					"pitch":74
				},
				{
					"onsetTime":6.750005625,
					"deltaTime":0.204545625,
					"length":0.068181875,
					"velocity":90,
					"pitch":74
				},
				{
					"onsetTime":7.022733125,
					"deltaTime":0.2727275,
					"length":0.068181875,
					"velocity":90,
					"pitch":74
				},
				{
					"onsetTime":7.63637,
					"deltaTime":0.613636875,
					"length":0.068181875,
					"velocity":76,
					"pitch":74
				},
				{
					"onsetTime":7.840915625,
					"deltaTime":0.204545625,
					"length":0.068181875,
					"velocity":71,
					"pitch":74
				},
				{
					"onsetTime":8.113643125,
					"deltaTime":0.2727275,
					"length":0.068181875,
					"velocity":88,
					"pitch":74
				}
			]
		},
		{
			"fileName":"JAFUNK_midi_rhodes_loop_jazzhands_110",
			"OnsetNumber":10,
			"NoteTab":[
				{
					"onsetTime":0,
					"deltaTime":0,
					"length":0.06250005208,
					"velocity":120,
					"pitch":60
				},
				{
					"onsetTime":0.1818183333,
					"deltaTime":0.1818183333,
					"length":0.2556820312,
					"velocity":87,
					"pitch":60
				},
				{
					"onsetTime":0.545455,
					"deltaTime":0.3636366667,
					"length":0.05681822917,
					"velocity":98,
					"pitch":60
				},
				{
					"onsetTime":1.000000833,
					"deltaTime":0.4545458333,
					"length":0.05681822917,
					"velocity":89,
					"pitch":59
				},
				{
					"onsetTime":1.272728333,
					"deltaTime":0.2727275,
					"length":0.02272729167,
					"velocity":73,
					"pitch":59
				},
				{
					"onsetTime":1.9090925,
					"deltaTime":0.6363641667,
					"length":0.06250005208,
					"velocity":81,
					"pitch":59
				},
				{
					"onsetTime":2.18182,
					"deltaTime":0.2727275,
					"length":0.068181875,
					"velocity":107,
					"pitch":58
				},
				{
					"onsetTime":2.363638333,
					"deltaTime":0.1818183333,
					"length":0.2670456771,
					"velocity":84,
					"pitch":58
				},
				{
					"onsetTime":2.727275,
					"deltaTime":0.3636366667,
					"length":0.07386369792,
					"velocity":99,
					"pitch":58
				},
				{
					"onsetTime":3.181820833,
					"deltaTime":0.4545458333,
					"length":0.0340909375,
					"velocity":98,
					"pitch":57
				}
			]
		},
		{
			"fileName":"MEDASIN_midi_MEDASIN_midi_loop_dumb_happy_Bmaj",
			"OnsetNumber":37,
			"NoteTab":[
				{
					"onsetTime":0,
					"deltaTime":0,
					"length":0.15873,
					"velocity":100,
					"pitch":35
				},
				{
					"onsetTime":0.15873,
					"deltaTime":0.15873,
					"length":0.15873,
					"velocity":100,
					"pitch":35
				},
				{
					"onsetTime":0.31746,
					"deltaTime":0.15873,
					"length":0.15873,
					"velocity":100,
					"pitch":35
				},
				{
					"onsetTime":0.95238,
					"deltaTime":0.63492,
					"length":0.15873,
					"velocity":100,
					"pitch":35
				},
				{
					"onsetTime":1.11111,
					"deltaTime":0.15873,
					"length":0.15873,
					"velocity":100,
					"pitch":35
				},
				{
					"onsetTime":1.26984,
					"deltaTime":0.15873,
					"length":0.15873,
					"velocity":100,
					"pitch":35
				},
				{
					"onsetTime":1.5873,
					"deltaTime":0.31746,
					"length":0.15873,
					"velocity":100,
					"pitch":35
				},
				{
					"onsetTime":1.90476,
					"deltaTime":0.31746,
					"length":0.15873,
					"velocity":100,
					"pitch":35
				},
				{
					"onsetTime":2.06349,
					"deltaTime":0.15873,
					"length":0.15873,
					"velocity":100,
					"pitch":35
				},
				{
					"onsetTime":2.22222,
					"deltaTime":0.15873,
					"length":0.15873,
					"velocity":100,
					"pitch":35
				},
				{
					"onsetTime":2.53968,
					"deltaTime":0.31746,
					"length":0.15873,
					"velocity":100,
					"pitch":37
				},
				{
					"onsetTime":2.69841,
					"deltaTime":0.15873,
					"length":0.15873,
					"velocity":100,
					"pitch":37
				},
				{
					"onsetTime":2.85714,
					"deltaTime":0.15873,
					"length":0.15873,
					"velocity":100,
					"pitch":37
				},
				{
					"onsetTime":3.49206,
					"deltaTime":0.63492,
					"length":0.15873,
					"velocity":100,
					"pitch":37
				},
				{
					"onsetTime":3.65079,
					"deltaTime":0.15873,
					"length":0.15873,
					"velocity":100,
					"pitch":37
				},
				{
					"onsetTime":3.80952,
					"deltaTime":0.15873,
					"length":0.15873,
					"velocity":100,
					"pitch":37
				},
				{
					"onsetTime":4.12698,
					"deltaTime":0.31746,
					"length":0.15873,
					"velocity":100,
					"pitch":37
				},
				{
					"onsetTime":4.44444,
					"deltaTime":0.31746,
					"length":0.15873,
					"velocity":100,
					"pitch":37
				},
				{
					"onsetTime":4.60317,
					"deltaTime":0.15873,
					"length":0.15873,
					"velocity":100,
					"pitch":37
				},
				{
					"onsetTime":4.7619,
					"deltaTime":0.15873,
					"length":0.15873,
					"velocity":100,
					"pitch":37
				},
				{
					"onsetTime":5.07936,
					"deltaTime":0.31746,
					"length":0.15873,
					"velocity":100,
					"pitch":42
				},
				{
					"onsetTime":5.23809,
					"deltaTime":0.15873,
					"length":0.15873,
					"velocity":100,
					"pitch":42
				},
				{
					"onsetTime":5.39682,
					"deltaTime":0.15873,
					"length":0.15873,
					"velocity":100,
					"pitch":42
				},
				{
					"onsetTime":6.03174,
					"deltaTime":0.63492,
					"length":0.15873,
					"velocity":100,
					"pitch":42
				},
				{
					"onsetTime":6.19047,
					"deltaTime":0.15873,
					"length":0.15873,
					"velocity":100,
					"pitch":42
				},
				{
					"onsetTime":6.3492,
					"deltaTime":0.15873,
					"length":0.15873,
					"velocity":100,
					"pitch":42
				},
				{
					"onsetTime":6.66666,
					"deltaTime":0.31746,
					"length":0.15873,
					"velocity":100,
					"pitch":42
				},
				{
					"onsetTime":6.98412,
					"deltaTime":0.31746,
					"length":0.15873,
					"velocity":100,
					"pitch":42
				},
				{
					"onsetTime":7.14285,
					"deltaTime":0.15873,
					"length":0.15873,
					"velocity":100,
					"pitch":42
				},
				{
					"onsetTime":7.30158,
					"deltaTime":0.15873,
					"length":0.15873,
					"velocity":100,
					"pitch":42
				},
				{
					"onsetTime":7.61904,
					"deltaTime":0.31746,
					"length":0.15873,
					"velocity":100,
					"pitch":47
				},
				{
					"onsetTime":7.77777,
					"deltaTime":0.15873,
					"length":0.15873,
					"velocity":100,
					"pitch":47
				},
				{
					"onsetTime":7.9365,
					"deltaTime":0.15873,
					"length":0.15873,
					"velocity":100,
					"pitch":47
				},
				{
					"onsetTime":8.57142,
					"deltaTime":0.63492,
					"length":0.15873,
					"velocity":100,
					"pitch":47
				},
				{
					"onsetTime":8.73015,
					"deltaTime":0.15873,
					"length":0.15873,
					"velocity":100,
					"pitch":47
				},
				{
					"onsetTime":8.88888,
					"deltaTime":0.15873,
					"length":0.15873,
					"velocity":100,
					"pitch":47
				},
				{
					"onsetTime":9.20634,
					"deltaTime":0.31746,
					"length":0.15873,
					"velocity":100,
					"pitch":47
				}
			]
		},
		{
			"fileName":"MEDASIN_midi_MEDASIN_midi_loop_dumb_happy_lead_D#min",
			"OnsetNumber":22,
			"NoteTab":[
				{
					"onsetTime":0.75,
					"deltaTime":0,
					"length":0.15625,
					"velocity":100,
					"pitch":70
				},
				{
					"onsetTime":0.9375,
					"deltaTime":0.1875,
					"length":0.15625,
					"velocity":100,
					"pitch":73
				},
				{
					"onsetTime":1.125,
					"deltaTime":0.1875,
					"length":0.171875,
					"velocity":100,
					"pitch":75
				},
				{
					"onsetTime":1.3125,
					"deltaTime":0.1875,
					"length":0.15625,
					"velocity":100,
					"pitch":78
				},
				{
					"onsetTime":1.5,
					"deltaTime":0.1875,
					"length":0.15625,
					"velocity":100,
					"pitch":75
				},
				{
					"onsetTime":1.875,
					"deltaTime":0.375,
					"length":0.15625,
					"velocity":100,
					"pitch":73
				},
				{
					"onsetTime":2.25,
					"deltaTime":0.375,
					"length":0.15625,
					"velocity":100,
					"pitch":70
				},
				{
					"onsetTime":2.625,
					"deltaTime":0.375,
					"length":0.15625,
					"velocity":100,
					"pitch":73
				},
				{
					"onsetTime":3,
					"deltaTime":0.375,
					"length":0.140625,
					"velocity":100,
					"pitch":68
				},
				{
					"onsetTime":6.75,
					"deltaTime":3.75,
					"length":0.15625,
					"velocity":100,
					"pitch":70
				},
				{
					"onsetTime":6.9375,
					"deltaTime":0.1875,
					"length":0.15625,
					"velocity":100,
					"pitch":73
				},
				{
					"onsetTime":7.125,
					"deltaTime":0.1875,
					"length":0.171875,
					"velocity":100,
					"pitch":75
				},
				{
					"onsetTime":7.3125,
					"deltaTime":0.1875,
					"length":0.15625,
					"velocity":100,
					"pitch":68
				},
				{
					"onsetTime":7.5,
					"deltaTime":0.1875,
					"length":0.15625,
					"velocity":100,
					"pitch":70
				},
				{
					"onsetTime":7.875,
					"deltaTime":0.375,
					"length":0.15625,
					"velocity":100,
					"pitch":71
				},
				{
					"onsetTime":8.25,
					"deltaTime":0.375,
					"length":0.15625,
					"velocity":100,
					"pitch":70
				},
				{
					"onsetTime":8.625,
					"deltaTime":0.375,
					"length":0.15625,
					"velocity":100,
					"pitch":68
				},
				{
					"onsetTime":9,
					"deltaTime":0.375,
					"length":0.140625,
					"velocity":100,
					"pitch":70
				},
				{
					"onsetTime":9.375,
					"deltaTime":0.375,
					"length":0.140625,
					"velocity":100,
					"pitch":63
				},
				{
					"onsetTime":9.5625,
					"deltaTime":0.1875,
					"length":0.140625,
					"velocity":100,
					"pitch":66
				},
				{
					"onsetTime":9.9375,
					"deltaTime":0.375,
					"length":0.140625,
					"velocity":100,
					"pitch":68
				},
				{
					"onsetTime":10.3125,
					"deltaTime":0.375,
					"length":0.140625,
					"velocity":100,
					"pitch":63
				}
			]
		},
		{
			"fileName":"MEDASIN_midi_MEDASIN_midi_loop_epic_lead_C#min",
			"OnsetNumber":59,
			"NoteTab":[
				{
					"onsetTime":0,
					"deltaTime":0,
					"length":0.1153845,
					"velocity":100,
					"pitch":49
				},
				{
					"onsetTime":0.1153845,
					"deltaTime":0.1153845,
					"length":0.1153845,
					"velocity":100,
					"pitch":52
				},
				{
					"onsetTime":0.230769,
					"deltaTime":0.1153845,
					"length":0.1153845,
					"velocity":100,
					"pitch":63
				},
				{
					"onsetTime":0.3461535,
					"deltaTime":0.1153845,
					"length":0.1153845,
					"velocity":100,
					"pitch":56
				},
				{
					"onsetTime":0.461538,
					"deltaTime":0.1153845,
					"length":0.1153845,
					"velocity":100,
					"pitch":59
				},
				{
					"onsetTime":0.5769225,
					"deltaTime":0.1153845,
					"length":0.1153845,
					"velocity":100,
					"pitch":54
				},
				{
					"onsetTime":0.692307,
					"deltaTime":0.1153845,
					"length":0.1153845,
					"velocity":100,
					"pitch":56
				},
				{
					"onsetTime":0.8076915,
					"deltaTime":0.1153845,
					"length":0.1153845,
					"velocity":100,
					"pitch":59
				},
				{
					"onsetTime":0.923076,
					"deltaTime":0.1153845,
					"length":0.1153845,
					"velocity":100,
					"pitch":56
				},
				{
					"onsetTime":1.0384605,
					"deltaTime":0.1153845,
					"length":0.1153845,
					"velocity":100,
					"pitch":56
				},
				{
					"onsetTime":1.153845,
					"deltaTime":0.1153845,
					"length":0.1153845,
					"velocity":100,
					"pitch":59
				},
				{
					"onsetTime":1.2692295,
					"deltaTime":0.1153845,
					"length":0.1153845,
					"velocity":100,
					"pitch":56
				},
				{
					"onsetTime":1.384614,
					"deltaTime":0.1153845,
					"length":0.1153845,
					"velocity":100,
					"pitch":56
				},
				{
					"onsetTime":1.4999985,
					"deltaTime":0.1153845,
					"length":0.1153845,
					"velocity":100,
					"pitch":59
				},
				{
					"onsetTime":1.615383,
					"deltaTime":0.1153845,
					"length":0.1153845,
					"velocity":100,
					"pitch":59
				},
				{
					"onsetTime":1.846152,
					"deltaTime":0.230769,
					"length":0.1153845,
					"velocity":100,
					"pitch":56
				},
				{
					"onsetTime":1.9615365,
					"deltaTime":0.1153845,
					"length":0.1153845,
					"velocity":100,
					"pitch":59
				},
				{
					"onsetTime":2.076921,
					"deltaTime":0.1153845,
					"length":0.1153845,
					"velocity":100,
					"pitch":54
				},
				{
					"onsetTime":2.1923055,
					"deltaTime":0.1153845,
					"length":0.1153845,
					"velocity":100,
					"pitch":56
				},
				{
					"onsetTime":2.30769,
					"deltaTime":0.1153845,
					"length":0.1153845,
					"velocity":100,
					"pitch":59
				},
				{
					"onsetTime":2.4230745,
					"deltaTime":0.1153845,
					"length":0.1153845,
					"velocity":100,
					"pitch":54
				},
				{
					"onsetTime":2.538459,
					"deltaTime":0.1153845,
					"length":0.1153845,
					"velocity":100,
					"pitch":56
				},
				{
					"onsetTime":2.6538435,
					"deltaTime":0.1153845,
					"length":0.1153845,
					"velocity":100,
					"pitch":59
				},
				{
					"onsetTime":2.769228,
					"deltaTime":0.1153845,
					"length":0.1153845,
					"velocity":100,
					"pitch":56
				},
				{
					"onsetTime":2.8846125,
					"deltaTime":0.1153845,
					"length":0.1153845,
					"velocity":100,
					"pitch":56
				},
				{
					"onsetTime":2.999997,
					"deltaTime":0.1153845,
					"length":0.1153845,
					"velocity":100,
					"pitch":59
				},
				{
					"onsetTime":3.1153815,
					"deltaTime":0.1153845,
					"length":0.1153845,
					"velocity":100,
					"pitch":56
				},
				{
					"onsetTime":3.230766,
					"deltaTime":0.1153845,
					"length":0.1153845,
					"velocity":100,
					"pitch":56
				},
				{
					"onsetTime":3.3461505,
					"deltaTime":0.1153845,
					"length":0.1153845,
					"velocity":100,
					"pitch":59
				},
				{
					"onsetTime":3.692304,
					"deltaTime":0.3461535,
					"length":0.1153845,
					"velocity":100,
					"pitch":56
				},
				{
					"onsetTime":3.8076885,
					"deltaTime":0.1153845,
					"length":0.1153845,
					"velocity":100,
					"pitch":59
				},
				{
					"onsetTime":3.923073,
					"deltaTime":0.1153845,
					"length":0.1153845,
					"velocity":100,
					"pitch":54
				},
				{
					"onsetTime":4.0384575,
					"deltaTime":0.1153845,
					"length":0.1153845,
					"velocity":100,
					"pitch":56
				},
				{
					"onsetTime":4.153842,
					"deltaTime":0.1153845,
					"length":0.1153845,
					"velocity":100,
					"pitch":59
				},
				{
					"onsetTime":4.2692265,
					"deltaTime":0.1153845,
					"length":0.1153845,
					"velocity":100,
					"pitch":54
				},
				{
					"onsetTime":4.384611,
					"deltaTime":0.1153845,
					"length":0.1153845,
					"velocity":100,
					"pitch":56
				},
				{
					"onsetTime":4.4999955,
					"deltaTime":0.1153845,
					"length":0.1153845,
					"velocity":100,
					"pitch":59
				},
				{
					"onsetTime":4.61538,
					"deltaTime":0.1153845,
					"length":0.1153845,
					"velocity":100,
					"pitch":56
				},
				{
					"onsetTime":4.7307645,
					"deltaTime":0.1153845,
					"length":0.1153845,
					"velocity":100,
					"pitch":56
				},
				{
					"onsetTime":4.846149,
					"deltaTime":0.1153845,
					"length":0.1153845,
					"velocity":100,
					"pitch":59
				},
				{
					"onsetTime":4.9615335,
					"deltaTime":0.1153845,
					"length":0.1153845,
					"velocity":100,
					"pitch":56
				},
				{
					"onsetTime":5.076918,
					"deltaTime":0.1153845,
					"length":0.1153845,
					"velocity":100,
					"pitch":56
				},
				{
					"onsetTime":5.1923025,
					"deltaTime":0.1153845,
					"length":0.1153845,
					"velocity":100,
					"pitch":59
				},
				{
					"onsetTime":5.307687,
					"deltaTime":0.1153845,
					"length":0.1153845,
					"velocity":100,
					"pitch":59
				},
				{
					"onsetTime":5.538456,
					"deltaTime":0.230769,
					"length":0.1153845,
					"velocity":100,
					"pitch":56
				},
				{
					"onsetTime":5.6538405,
					"deltaTime":0.1153845,
					"length":0.1153845,
					"velocity":100,
					"pitch":59
				},
				{
					"onsetTime":5.769225,
					"deltaTime":0.1153845,
					"length":0.1153845,
					"velocity":100,
					"pitch":63
				},
				{
					"onsetTime":5.8846095,
					"deltaTime":0.1153845,
					"length":0.1153845,
					"velocity":100,
					"pitch":56
				},
				{
					"onsetTime":5.999994,
					"deltaTime":0.1153845,
					"length":0.1153845,
					"velocity":100,
					"pitch":59
				},
				{
					"onsetTime":6.1153785,
					"deltaTime":0.1153845,
					"length":0.1153845,
					"velocity":100,
					"pitch":63
				},
				{
					"onsetTime":6.230763,
					"deltaTime":0.1153845,
					"length":0.1153845,
					"velocity":100,
					"pitch":56
				},
				{
					"onsetTime":6.3461475,
					"deltaTime":0.1153845,
					"length":0.1153845,
					"velocity":100,
					"pitch":59
				},
				{
					"onsetTime":6.461532,
					"deltaTime":0.1153845,
					"length":0.1153845,
					"velocity":100,
					"pitch":64
				},
				{
					"onsetTime":6.5769165,
					"deltaTime":0.1153845,
					"length":0.1153845,
					"velocity":100,
					"pitch":56
				},
				{
					"onsetTime":6.692301,
					"deltaTime":0.1153845,
					"length":0.1153845,
					"velocity":100,
					"pitch":59
				},
				{
					"onsetTime":6.8076855,
					"deltaTime":0.1153845,
					"length":0.1153845,
					"velocity":100,
					"pitch":64
				},
				{
					"onsetTime":6.92307,
					"deltaTime":0.1153845,
					"length":0.1153845,
					"velocity":100,
					"pitch":56
				},
				{
					"onsetTime":7.0384545,
					"deltaTime":0.1153845,
					"length":0.1153845,
					"velocity":100,
					"pitch":59
				},
				{
					"onsetTime":7.153839,
					"deltaTime":0.1153845,
					"length":0.1153845,
					"velocity":100,
					"pitch":66
				}
			]
		},
		{
			"fileName":"MEDASIN_midi_MEDASIN_midi_loop_neon_bassline_D#maj",
			"OnsetNumber":44,
			"NoteTab":[
				{
					"onsetTime":0,
					"deltaTime":0,
					"length":0.2608695,
					"velocity":80,
					"pitch":51
				},
				{
					"onsetTime":0.2608695,
					"deltaTime":0.2608695,
					"length":0.2608695,
					"velocity":100,
					"pitch":58
				},
				{
					"onsetTime":0.521739,
					"deltaTime":0.2608695,
					"length":0.2608695,
					"velocity":121,
					"pitch":63
				},
				{
					"onsetTime":0.7826085,
					"deltaTime":0.2608695,
					"length":0.2608695,
					"velocity":104,
					"pitch":70
				},
				{
					"onsetTime":1.3043475,
					"deltaTime":0.521739,
					"length":0.2608695,
					"velocity":63,
					"pitch":67
				},
				{
					"onsetTime":1.8260865,
					"deltaTime":0.521739,
					"length":0.2608695,
					"velocity":93,
					"pitch":50
				},
				{
					"onsetTime":2.086956,
					"deltaTime":0.2608695,
					"length":0.2608695,
					"velocity":114,
					"pitch":48
				},
				{
					"onsetTime":2.3478255,
					"deltaTime":0.2608695,
					"length":0.2608695,
					"velocity":111,
					"pitch":48
				},
				{
					"onsetTime":2.608695,
					"deltaTime":0.2608695,
					"length":0.2608695,
					"velocity":91,
					"pitch":60
				},
				{
					"onsetTime":2.8695645,
					"deltaTime":0.2608695,
					"length":0.2608695,
					"velocity":70,
					"pitch":67
				},
				{
					"onsetTime":4.173912,
					"deltaTime":1.3043475,
					"length":0.2608695,
					"velocity":98,
					"pitch":51
				},
				{
					"onsetTime":4.4347815,
					"deltaTime":0.2608695,
					"length":0.2608695,
					"velocity":77,
					"pitch":58
				},
				{
					"onsetTime":4.695651,
					"deltaTime":0.2608695,
					"length":0.2608695,
					"velocity":59,
					"pitch":63
				},
				{
					"onsetTime":4.9565205,
					"deltaTime":0.2608695,
					"length":0.2608695,
					"velocity":79,
					"pitch":70
				},
				{
					"onsetTime":5.4782595,
					"deltaTime":0.521739,
					"length":0.2608695,
					"velocity":120,
					"pitch":67
				},
				{
					"onsetTime":5.9999985,
					"deltaTime":0.521739,
					"length":0.2608695,
					"velocity":85,
					"pitch":46
				},
				{
					"onsetTime":6.260868,
					"deltaTime":0.2608695,
					"length":0.2608695,
					"velocity":64,
					"pitch":48
				},
				{
					"onsetTime":6.5217375,
					"deltaTime":0.2608695,
					"length":0.2608695,
					"velocity":72,
					"pitch":55
				},
				{
					"onsetTime":6.782607,
					"deltaTime":0.2608695,
					"length":0.2608695,
					"velocity":92,
					"pitch":60
				},
				{
					"onsetTime":7.0434765,
					"deltaTime":0.2608695,
					"length":0.2608695,
					"velocity":113,
					"pitch":67
				},
				{
					"onsetTime":7.826085,
					"deltaTime":0.7826085,
					"length":0.2608695,
					"velocity":71,
					"pitch":51
				},
				{
					"onsetTime":8.0869545,
					"deltaTime":0.2608695,
					"length":0.2608695,
					"velocity":65,
					"pitch":52
				},
				{
					"onsetTime":8.347824,
					"deltaTime":0.2608695,
					"length":0.2608695,
					"velocity":85,
					"pitch":53
				},
				{
					"onsetTime":8.6086935,
					"deltaTime":0.2608695,
					"length":0.2608695,
					"velocity":106,
					"pitch":60
				},
				{
					"onsetTime":8.869563,
					"deltaTime":0.2608695,
					"length":0.2608695,
					"velocity":119,
					"pitch":65
				},
				{
					"onsetTime":9.1304325,
					"deltaTime":0.2608695,
					"length":0.2608695,
					"velocity":99,
					"pitch":72
				},
				{
					"onsetTime":9.6521715,
					"deltaTime":0.521739,
					"length":0.2608695,
					"velocity":58,
					"pitch":68
				},
				{
					"onsetTime":9.913041,
					"deltaTime":0.2608695,
					"length":0.2608695,
					"velocity":78,
					"pitch":51
				},
				{
					"onsetTime":10.1739105,
					"deltaTime":0.2608695,
					"length":0.2608695,
					"velocity":99,
					"pitch":52
				},
				{
					"onsetTime":10.43478,
					"deltaTime":0.2608695,
					"length":0.2608695,
					"velocity":119,
					"pitch":53
				},
				{
					"onsetTime":10.6956495,
					"deltaTime":0.2608695,
					"length":0.2608695,
					"velocity":106,
					"pitch":53
				},
				{
					"onsetTime":10.956519,
					"deltaTime":0.2608695,
					"length":0.2608695,
					"velocity":85,
					"pitch":65
				},
				{
					"onsetTime":11.2173885,
					"deltaTime":0.2608695,
					"length":0.2608695,
					"velocity":65,
					"pitch":72
				},
				{
					"onsetTime":12.521736,
					"deltaTime":1.3043475,
					"length":0.2608695,
					"velocity":92,
					"pitch":46
				},
				{
					"onsetTime":12.7826055,
					"deltaTime":0.2608695,
					"length":0.2608695,
					"velocity":72,
					"pitch":53
				},
				{
					"onsetTime":13.043475,
					"deltaTime":0.2608695,
					"length":0.2608695,
					"velocity":64,
					"pitch":58
				},
				{
					"onsetTime":13.3043445,
					"deltaTime":0.2608695,
					"length":0.2608695,
					"velocity":85,
					"pitch":70
				},
				{
					"onsetTime":13.8260835,
					"deltaTime":0.521739,
					"length":0.2608695,
					"velocity":120,
					"pitch":41
				},
				{
					"onsetTime":14.086953,
					"deltaTime":0.2608695,
					"length":0.2608695,
					"velocity":99,
					"pitch":44
				},
				{
					"onsetTime":14.3478225,
					"deltaTime":0.2608695,
					"length":0.2608695,
					"velocity":79,
					"pitch":45
				},
				{
					"onsetTime":14.608692,
					"deltaTime":0.2608695,
					"length":0.2608695,
					"velocity":59,
					"pitch":46
				},
				{
					"onsetTime":14.8695615,
					"deltaTime":0.2608695,
					"length":0.2608695,
					"velocity":78,
					"pitch":46
				},
				{
					"onsetTime":15.130431,
					"deltaTime":0.2608695,
					"length":0.2608695,
					"velocity":98,
					"pitch":58
				},
				{
					"onsetTime":15.3913005,
					"deltaTime":0.2608695,
					"length":0.2608695,
					"velocity":118,
					"pitch":67
				}
			]
		},
		{
			"fileName":"MEDASIN_midi_MEDASIN_midi_loop_spooked_Fmin",
			"OnsetNumber":24,
			"NoteTab":[
				{
					"onsetTime":0.01630434375,
					"deltaTime":0,
					"length":0.152173875,
					"velocity":57,
					"pitch":53
				},
				{
					"onsetTime":0.8206519687,
					"deltaTime":0.804347625,
					"length":0.13043475,
					"velocity":80,
					"pitch":60
				},
				{
					"onsetTime":1.581521344,
					"deltaTime":0.760869375,
					"length":0.152173875,
					"velocity":52,
					"pitch":53
				},
				{
					"onsetTime":2.103260344,
					"deltaTime":0.521739,
					"length":0.0869565,
					"velocity":107,
					"pitch":58
				},
				{
					"onsetTime":3.124999219,
					"deltaTime":1.021738875,
					"length":0.13043475,
					"velocity":105,
					"pitch":54
				},
				{
					"onsetTime":4.21739025,
					"deltaTime":1.092391031,
					"length":0.0869565,
					"velocity":77,
					"pitch":53
				},
				{
					"onsetTime":4.99999875,
					"deltaTime":0.7826085,
					"length":0.065217375,
					"velocity":96,
					"pitch":60
				},
				{
					"onsetTime":5.78260725,
					"deltaTime":0.7826085,
					"length":0.0869565,
					"velocity":77,
					"pitch":53
				},
				{
					"onsetTime":6.30434625,
					"deltaTime":0.521739,
					"length":0.108695625,
					"velocity":101,
					"pitch":58
				},
				{
					"onsetTime":7.342389469,
					"deltaTime":1.038043219,
					"length":0.108695625,
					"velocity":60,
					"pitch":54
				},
				{
					"onsetTime":8.374997906,
					"deltaTime":1.032608438,
					"length":0.13043475,
					"velocity":51,
					"pitch":53
				},
				{
					"onsetTime":9.146736844,
					"deltaTime":0.7717389375,
					"length":0.13043475,
					"velocity":83,
					"pitch":60
				},
				{
					"onsetTime":9.945649687,
					"deltaTime":0.7989128437,
					"length":0.0869565,
					"velocity":57,
					"pitch":53
				},
				{
					"onsetTime":10.45108434,
					"deltaTime":0.5054346562,
					"length":0.065217375,
					"velocity":101,
					"pitch":58
				},
				{
					"onsetTime":11.48912756,
					"deltaTime":1.038043219,
					"length":0.1141304063,
					"velocity":77,
					"pitch":54
				},
				{
					"onsetTime":12.55977947,
					"deltaTime":1.070651906,
					"length":0.108695625,
					"velocity":80,
					"pitch":53
				},
				{
					"onsetTime":12.82064897,
					"deltaTime":0.2608695,
					"length":0.13043475,
					"velocity":81,
					"pitch":53
				},
				{
					"onsetTime":13.34238797,
					"deltaTime":0.521739,
					"length":0.065217375,
					"velocity":103,
					"pitch":60
				},
				{
					"onsetTime":14.12499647,
					"deltaTime":0.7826085,
					"length":0.13043475,
					"velocity":103,
					"pitch":53
				},
				{
					"onsetTime":14.65760503,
					"deltaTime":0.5326085625,
					"length":0.0869565,
					"velocity":95,
					"pitch":58
				},
				{
					"onsetTime":15.69021347,
					"deltaTime":1.032608437,
					"length":0.065217375,
					"velocity":96,
					"pitch":54
				},
				{
					"onsetTime":15.93477862,
					"deltaTime":0.2445651562,
					"length":0.065217375,
					"velocity":55,
					"pitch":60
				},
				{
					"onsetTime":16.20651769,
					"deltaTime":0.2717390625,
					"length":0.065217375,
					"velocity":83,
					"pitch":61
				},
				{
					"onsetTime":16.46738719,
					"deltaTime":0.2608695,
					"length":0.0869565,
					"velocity":107,
					"pitch":63
				}
			]
		},
		{
			"fileName":"Melody_dth_122_kit2_blur_synth_loop_Cmin",
			"OnsetNumber":5,
			"NoteTab":[
				{
					"onsetTime":0,
					"deltaTime":0,
					"length":0.7377045,
					"velocity":75,
					"pitch":36
				},
				{
					"onsetTime":0.7377045,
					"deltaTime":0.7377045,
					"length":1.2295075,
					"velocity":89,
					"pitch":60
				},
				{
					"onsetTime":1.967212,
					"deltaTime":1.2295075,
					"length":0.7377045,
					"velocity":78,
					"pitch":56
				},
				{
					"onsetTime":2.7049165,
					"deltaTime":0.7377045,
					"length":0.7377045,
					"velocity":70,
					"pitch":58
				},
				{
					"onsetTime":3.442621,
					"deltaTime":0.7377045,
					"length":0.491803,
					"velocity":58,
					"pitch":55
				}
			]
		},
		{
			"fileName":"Melody_dth_122_kit6_synthetics_synth_loop_Dmin",
			"OnsetNumber":9,
			"NoteTab":[
				{
					"onsetTime":0,
					"deltaTime":0,
					"length":0.2459015,
					"velocity":114,
					"pitch":48
				},
				{
					"onsetTime":0.2459015,
					"deltaTime":0.2459015,
					"length":0.5840160625,
					"velocity":107,
					"pitch":60
				},
				{
					"onsetTime":0.491803,
					"deltaTime":0.2459015,
					"length":0.2459015,
					"velocity":81,
					"pitch":70
				},
				{
					"onsetTime":0.86065525,
					"deltaTime":0.36885225,
					"length":1.475409,
					"velocity":96,
					"pitch":67
				},
				{
					"onsetTime":1.7213105,
					"deltaTime":0.86065525,
					"length":0.12295075,
					"velocity":114,
					"pitch":48
				},
				{
					"onsetTime":1.967212,
					"deltaTime":0.2459015,
					"length":0.36885225,
					"velocity":114,
					"pitch":48
				},
				{
					"onsetTime":2.2131135,
					"deltaTime":0.2459015,
					"length":0.2459015,
					"velocity":114,
					"pitch":60
				},
				{
					"onsetTime":2.459015,
					"deltaTime":0.2459015,
					"length":0.2459015,
					"velocity":93,
					"pitch":70
				},
				{
					"onsetTime":2.82786725,
					"deltaTime":0.36885225,
					"length":1.10655675,
					"velocity":72,
					"pitch":67
				}
			]
		}
	]
}
